<svg width="210" height="94" viewBox="0 0 210 94" fill="none" xmlns="http://www.w3.org/2000/svg">
<path d="M10.1888 59.546H11.296V58.7584M10.1888 59.546H9.66376M10.1888 59.546L10.2377 60.3336M3.88792 59.546L7.56345 62.1714M3.88792 59.546L3.82076 60.3336M3.88792 59.546H2.61186V58.7584M3.88792 59.546H6.38203M1.64922 85.7998H3.36284M1.64922 85.7998L1.91787 82.6494M1.64922 85.7998L1.32461 89.6066M11.817 85.7998H10.7404M11.817 85.7998L11.6379 82.9119M11.817 85.7998L12.0531 89.6066M3.36284 85.7998L4.67553 87.1125M3.36284 85.7998H4.67553M3.36284 85.7998L4.19115 84.9226M6.77584 89.2128V93.4134H7.44228V88.4252M6.77584 89.2128L7.44228 88.4252M6.77584 89.2128L6.38203 88.819M6.77584 89.2128V36.4427M9.66376 85.7998H10.7404M9.66376 85.7998L8.99732 86.5874M9.66376 85.7998H8.61361M11.296 77.3986L11.6379 82.9119M11.296 77.3986L9.14884 79.6724M11.296 77.3986L11.1332 74.7732M10.7404 85.7998L5.20061 79.6724M2.43277 76.611L2.61186 74.5107M2.43277 76.611L1.91787 82.6494M2.43277 76.611L4.53236 78.9333M2.61186 74.5107L2.76857 72.6729M2.61186 74.5107H5.98823M2.61186 74.5107L5.20061 77.22M8.35107 80.5173L8.81687 80.024M8.35107 80.5173L7.03838 79.1434M8.35107 80.5173L5.71122 83.3129M8.81687 80.024L11.6379 82.9119M8.81687 80.024L9.14884 79.6724M1.91787 82.6494L3.55924 81.1609M1.91787 82.6494L4.19115 84.9226M5.20061 79.6724H9.14884M5.20061 79.6724L3.55924 81.1609M5.20061 79.6724L4.53236 78.9333M7.03838 79.1434L11.1332 74.7732M7.03838 79.1434L5.71122 77.7544M11.1332 74.7732L11.1169 74.5107M11.1169 74.5107L11.0029 72.6729M11.1169 74.5107H7.56345M2.76857 72.6729H3.88792M2.76857 72.6729L3.01483 69.785M11.0029 72.6729L7.56345 74.5107M11.0029 72.6729H7.56345M11.0029 72.6729L10.9505 71.8274M3.88792 72.6729L7.56345 74.5107M3.88792 72.6729H5.98823M7.56345 74.5107H5.98823M3.01483 69.785L5.46315 72.1629M3.01483 69.785L3.18803 67.7539M3.01483 69.785L6.55265 67.9472M5.98823 72.6729L5.46315 72.1629M5.98823 72.6729H7.56345M5.46315 72.1629L7.41661 70.1777M10.6447 66.8971L10.6979 67.7539M10.6447 66.8971L8.35107 69.228M10.6447 66.8971L10.5707 65.7037M7.56345 72.6729V85.7998M7.56345 72.6729V71.8274M7.56345 59.546V60.3336M7.56345 59.546H6.95392M7.56345 59.546H9.66376M7.56345 85.7998H4.67553M7.56345 85.7998H8.61361M1.32461 89.6066L1 93.4134H1.52508L1.91787 89.1651M1.32461 89.6066L1.91787 89.1651M4.67553 87.1125V85.7998M4.67553 87.1125L5.20061 87.6376M4.67553 87.1125L1.91787 89.1651M8.99732 86.5874L8.61361 87.0409M8.99732 86.5874L11.3888 88.9503M12.0531 89.6066L12.2891 93.4134H11.5015L11.3888 88.9503M12.0531 89.6066L11.3888 88.9503M7.56345 67.4222V65.5844M7.56345 67.4222L6.55265 67.9472M7.56345 67.4222V68.958M3.18803 67.7539H5.46315M3.18803 67.7539L3.44018 64.7968M10.6979 67.7539H5.46315M10.6979 67.7539L10.7912 69.2599M5.46315 67.7539L6.38203 66.8047M7.56345 65.5844V62.6965M7.56345 65.5844L6.38203 66.8047M3.44018 64.7968L3.66405 62.1714M3.44018 64.7968L5.71152 63.3506M7.56345 62.1714H4.53236M7.56345 62.1714L5.71152 63.3506M7.56345 62.1714V62.6965M7.56345 62.1714V61.2525M7.56345 62.1714H8.87615M10.3517 62.1714L10.5707 65.7037M10.3517 62.1714L10.2377 60.3336M10.3517 62.1714H8.87615M3.66405 62.1714L3.82076 60.3336M3.66405 62.1714H4.53236M3.82076 60.3336H4.413M7.56345 60.3336H4.413M7.56345 60.3336H10.2377M7.56345 60.3336V61.2525M8.61361 87.0409V85.7998M8.61361 87.0409L8.10873 87.6376M6.95392 54.5578H4.413M6.95392 54.5578H7.03838M6.95392 54.5578L5.68346 53.3764M6.95392 54.5578L8.30884 53.3764M6.95392 54.5578V55.3454M6.95392 59.546V55.4299M6.95392 59.546H6.38203M4.413 54.5578L9.66376 49.8321M4.413 54.5578V52.1949M4.413 54.5578H3.51243M4.413 54.5578V55.3454M4.413 60.3336V57.9708M9.66376 54.5578H11.296V56.133M9.66376 54.5578V56.133M9.66376 54.5578L4.413 49.8321M9.66376 54.5578H7.03838M9.66376 54.5578V52.1949M9.66376 59.546V56.133M4.413 57.9708L6.95392 55.4299M4.413 57.9708H9.49484L6.95392 55.4299M4.413 57.9708V56.133M6.95392 55.4299V55.3454M2.61186 58.7584V56.133M2.61186 58.7584H3.51243M11.296 58.7584V56.133M11.296 58.7584H3.51243M9.66376 56.133H11.296M2.61186 56.133V54.5578H3.51243M2.61186 56.133H4.413M4.413 56.133V55.3454M4.413 49.8321V52.1949M4.413 49.8321H3.66405M4.413 49.8321H4.93807M9.66376 49.8321V52.1949M9.66376 49.8321H10.3517V52.72H11.7641V44.0563H9.66376M9.66376 49.8321H7.82599M9.66376 49.8321V46.6816M7.03838 49.8321V54.5578M7.03838 49.8321H4.93807M7.03838 49.8321H7.82599M4.413 52.1949L5.68346 53.3764M9.66376 52.1949L8.30884 53.3764M5.68346 53.3764H8.30884M3.66405 44.0563H2.8571M3.66405 44.0563V49.8321M3.66405 44.0563V42M3.66405 44.0563H6.38203M3.66405 41.6934V42M3.66405 41.6934H6.38203M3.66405 41.6934H3.44018M3.44018 38.543H2.61186V41.6934H3.44018M3.44018 38.543V36.3114M3.44018 38.543V41.6934M3.44018 38.543H4.15046V36.3114M3.44018 34.0798V36.3114M3.44018 34.0798H8.30884M3.44018 34.0798V32.5046M10.9765 34.0798V31.9795M10.9765 34.0798V36.3114M10.9765 34.0798H9.40122M9.66376 41.6934H10.9765V39.068M9.66376 41.6934V42M9.66376 41.6934H8.87615M9.66376 44.0563V46.6816M9.66376 44.0563H8.30884M9.66376 44.0563V42M2.8571 44.0563H2.05015V49.8321H2.8571M2.8571 44.0563V49.8321M2.8571 49.8321H3.66405M4.93807 49.8321V48.3881M4.93807 46.9442V44.0563L5.31077 43.0281M4.93807 46.9442V48.3881M4.93807 46.9442L6.38203 48.3881M7.82599 49.8321L6.38203 48.3881M4.93807 48.3881H6.38203M6.38203 48.3881L7.56345 47.7738M9.66376 46.6816L8.30884 45.6315H6.38203V46.9442L7.56345 47.7738M9.66376 46.6816L7.56345 47.7738M5.68346 42H3.66405M5.68346 42L5.31077 43.0281M5.68346 42H9.66376M5.31077 43.0281H6.38203V44.0563M6.38203 44.0563H8.30884M8.30884 44.0563V43.0281V41.6934M8.30884 41.6934H8.12249M8.30884 41.6934H8.87615M7.03838 41.6934H6.38203M7.03838 41.6934V40.1182M7.03838 41.6934H8.12249M6.38203 32.5046H7.03838V36.3114M6.38203 32.5046V36.3114M6.38203 32.5046V30.7981M6.38203 41.6934V36.3114M3.44018 36.3114H4.15046M6.38203 36.3114H5.98823M6.38203 36.3114V88.819M3.44018 31.9795V32.5046M3.44018 31.9795H4.91111M3.44018 31.9795V30.7981M10.9765 31.9795H11.7641V36.3114H10.9765M10.9765 31.9795H9.9263M10.9765 31.9795V27.7789H9.9263M10.9765 36.3114H9.40122M10.9765 36.3114V38.0179M7.03838 36.3114V38.0179M7.03838 36.3114H7.30092M8.30884 34.0798V36.3114M8.30884 34.0798H8.87615M8.30884 36.3114H8.40615M8.30884 36.3114H8.12249M8.87615 36.3114V34.0798M8.87615 36.3114H9.40122M8.87615 36.3114H8.40615M8.87615 34.0798H9.40122M9.40122 34.0798V36.3114M8.87615 36.4427V38.0179M8.87615 38.0179H8.40615M8.87615 38.0179V41.6934M8.87615 38.0179H10.9765M7.03838 38.0179H7.30092M7.03838 38.0179V39.068M7.30092 36.3114V38.0179M7.30092 36.3114H7.56345M7.30092 38.0179H7.56345M7.56345 38.0179V36.3114M7.56345 38.0179H7.93615M7.56345 36.3114H7.93615M7.93615 36.3114V38.0179M7.93615 36.3114H8.12249M7.93615 38.0179H8.12249M8.40615 38.0179V36.3114M8.40615 38.0179H8.12249M8.12249 36.3114V38.0179M7.03838 40.1182H8.12249V41.6934M7.03838 40.1182V39.068M7.03838 39.068H10.9765M10.9765 39.068V38.0179M4.15046 36.3114H5.98823M3.44018 32.5046H2.61186M2.61186 32.5046H1.52508V34.6049H2.61186V32.5046ZM4.91111 29.6167H6.38203V30.7981M4.91111 29.6167V31.9795M4.91111 29.6167H4.67553M4.91111 31.9795H6.70346M3.44018 30.7981V29.6167H3.66405M3.44018 30.7981H6.38203M3.66405 29.6167V26.9913H4.16979M3.66405 29.6167H4.67553M4.67553 29.6167V26.9913H4.16979M4.16979 26.9913V22.0031H4.91111M9.9263 31.9795V27.7789M9.9263 31.9795H7.30092M9.9263 27.7789V25.1535M7.30092 31.9795V29.6167V22.0031M7.30092 31.9795H6.70346M7.30092 22.0031H6.70346M7.30092 22.0031H7.82599M4.91111 22.0031H6.10601M4.91111 22.0031V24.3659M9.9263 25.1535V24.3659M9.9263 25.1535H9.13868M6.10601 22.0031V25.1535M6.10601 22.0031H6.40474M6.10601 25.1535H4.91111V24.3659M6.10601 25.1535H6.70346M4.91111 24.3659H9.9263M9.9263 24.3659V22.0031H9.13868M6.70346 22.0031V25.1535M6.70346 22.0031H6.40474M6.70346 25.1535H9.13868M6.70346 25.1535V31.9795M9.13868 22.0031V25.1535M9.13868 22.0031H7.82599M5.20061 87.6376H8.10873M5.20061 87.6376L5.98823 88.4252M8.10873 87.6376L7.44228 88.4252M6.40474 22.0031V18.5901H5.72569V17.8024M7.82599 22.0031V18.5901M5.72569 17.2774V16.7523H6.25076V10.7139M5.72569 17.2774H7.82599M5.72569 17.2774V17.5399M7.82599 17.2774V16.7523H7.30092V10.7139M7.82599 17.2774V17.5399M7.82599 17.8024V17.5399M7.82599 17.8024H6.5133M7.82599 17.8024V18.5901M5.72569 17.8024V17.5399M5.72569 17.8024H6.5133M5.72569 17.5399H7.82599M6.5133 17.8024V18.5901H7.82599M6.25076 10.7139V1H7.30092V10.7139M6.25076 10.7139H7.30092M3.55924 81.1609L5.71122 83.3129M5.71122 83.3129L4.19115 84.9226M5.71122 77.7544L4.53236 78.9333M5.71122 77.7544L5.20061 77.22M5.71122 68.4723L7.41661 70.1777M7.41661 70.1777L8.35107 69.228M6.55265 67.9472L7.56345 68.958M7.56345 68.958V71.8274M8.35107 69.228L9.25697 70.1339M10.9505 71.8274L9.25697 70.1339M10.9505 71.8274L10.7912 69.2599M7.56345 71.8274L9.25697 70.1339M8.35107 69.2599H10.7912M4.53236 62.1714L5.71152 63.3506M7.56345 62.6965L10.5707 65.7037M5.98823 74.5107L5.20061 77.22M3.51243 54.5578V58.7584M4.413 55.3454H6.95392M7.56345 61.2525L8.87615 62.1714M6.38203 59.546V66.8047M5.98823 88.4252V36.3114M5.98823 88.4252L6.38203 88.819" stroke="url(#paint0_linear_1047_742)" stroke-width="0.375874"/>
<g filter="url(#filter0_d_1047_742)">
<path d="M23.4226 62.4327C21.1411 62.4327 19.1744 62.0656 17.5223 61.3313C15.8964 60.5708 14.4016 59.4301 13.038 57.9091L17.0502 53.9362C17.9418 54.9589 18.9252 55.7587 20.0004 56.3357C21.1018 56.8864 22.3737 57.1617 23.816 57.1617C25.1272 57.1617 26.1368 56.9257 26.8448 56.4537C27.5791 55.9816 27.9462 55.3261 27.9462 54.4869C27.9462 53.7264 27.7102 53.1101 27.2382 52.6381C26.7661 52.1661 26.1368 51.7596 25.3501 51.4187C24.5896 51.0778 23.7373 50.75 22.7932 50.4353C21.8754 50.1206 20.9576 49.7666 20.0397 49.3733C19.1219 48.9537 18.2696 48.4423 17.4829 47.8392C16.7224 47.2098 16.1062 46.4362 15.6341 45.5184C15.1621 44.5743 14.9261 43.3942 14.9261 41.9782C14.9261 40.2736 15.3326 38.8051 16.1455 37.5726C16.9847 36.34 18.1385 35.4091 19.607 34.7797C21.0756 34.1241 22.767 33.7963 24.6813 33.7963C26.6219 33.7963 28.392 34.1372 29.9917 34.8191C31.6175 35.5009 32.9549 36.4318 34.0039 37.6119L29.9917 41.5848C29.1525 40.7194 28.3002 40.0769 27.4348 39.6573C26.5957 39.2378 25.6385 39.028 24.5633 39.028C23.4882 39.028 22.6359 39.2378 22.0065 39.6573C21.3772 40.0507 21.0625 40.6276 21.0625 41.3881C21.0625 42.0962 21.2985 42.6731 21.7705 43.1189C22.2425 43.5385 22.8588 43.9056 23.6193 44.2203C24.406 44.535 25.2583 44.8497 26.1761 45.1643C27.1202 45.479 28.0511 45.8462 28.9689 46.2657C29.8868 46.6853 30.7259 47.2229 31.4864 47.8785C32.2731 48.5079 32.9025 49.3208 33.3745 50.3173C33.8466 51.2876 34.0826 52.4939 34.0826 53.9362C34.0826 56.5848 33.1385 58.6696 31.2504 60.1906C29.3623 61.6853 26.753 62.4327 23.4226 62.4327ZM51.503 62.472C49.4051 62.472 47.4646 62.1049 45.6814 61.3706C43.9244 60.6364 42.3772 59.6136 41.0398 58.3024C39.7023 56.9913 38.6665 55.4703 37.9322 53.7395C37.198 51.9825 36.8308 50.0944 36.8308 48.0752C36.8308 46.0297 37.198 44.1416 37.9322 42.4108C38.6665 40.6801 39.6892 39.1722 41.0004 37.8872C42.3116 36.5761 43.8457 35.5664 45.6027 34.8584C47.3859 34.1241 49.3265 33.757 51.4244 33.757C53.496 33.757 55.4104 34.1241 57.1674 34.8584C58.9506 35.5664 60.4978 36.5761 61.809 37.8872C63.1464 39.1722 64.1822 40.6932 64.9165 42.4502C65.6508 44.1809 66.0179 46.0691 66.0179 48.1145C66.0179 50.1337 65.6508 52.0219 64.9165 53.7788C64.1822 55.5096 63.1595 57.0306 61.8483 58.3418C60.5371 59.6267 58.9899 60.6364 57.2067 61.3706C55.4497 62.1049 53.5485 62.472 51.503 62.472ZM51.4244 56.847C53.0765 56.847 54.5188 56.4799 55.7513 55.7456C57.01 55.0114 57.9803 53.9886 58.6621 52.6774C59.3439 51.34 59.6849 49.8059 59.6849 48.0752C59.6849 46.764 59.4882 45.5839 59.0948 44.535C58.7015 43.4598 58.1377 42.542 57.4034 41.7815C56.6691 40.9948 55.7906 40.4047 54.7679 40.0114C53.7714 39.5918 52.6569 39.382 51.4244 39.382C49.7723 39.382 48.3169 39.7491 47.0581 40.4834C45.8256 41.1914 44.8684 42.2011 44.1866 43.5122C43.5048 44.7972 43.1639 46.3182 43.1639 48.0752C43.1639 49.3864 43.3606 50.5795 43.7539 51.6547C44.1473 52.7299 44.698 53.6608 45.406 54.4476C46.1403 55.208 47.0188 55.7981 48.0415 56.2177C49.0642 56.6372 50.1919 56.847 51.4244 56.847ZM69.9382 62V34.229H76.1139V62H69.9382ZM74.6979 62V56.5717H88.426V62H74.6979ZM89.1347 62L100.149 34.229H105.734L116.63 62H110.101L101.761 38.9493H104.004L95.5464 62H89.1347ZM95.389 56.965V51.9301H110.533V56.965H95.389ZM119.569 62V34.229H123.896L125.744 39.7754V62H119.569ZM138.725 62L122.362 41.0341L123.896 34.229L140.259 55.1949L138.725 62ZM138.725 62L137.073 56.4537V34.229H143.249V62H138.725ZM146.525 62L157.539 34.229H163.124L174.02 62H167.491L159.152 38.9493H161.394L152.936 62H146.525ZM152.779 56.965V51.9301H167.923V56.965H152.779Z" fill="url(#paint1_linear_1047_742)"/>
</g>
<path d="M20.1629 91L11.8529 69.91H16.2629L22.6829 86.98H20.9729L27.4529 69.91H31.8029L23.4029 91H20.1629ZM34.5653 91V69.91H38.6453V91H34.5653ZM45.9735 91V87.67H51.4635C52.4435 87.67 53.2035 87.37 53.7435 86.77C54.3035 86.17 54.5835 85.46 54.5835 84.64C54.5835 84.08 54.4635 83.57 54.2235 83.11C53.9835 82.65 53.6235 82.29 53.1435 82.03C52.6835 81.75 52.1235 81.61 51.4635 81.61H45.9735V78.31H51.0135C51.8535 78.31 52.5235 78.1 53.0235 77.68C53.5435 77.26 53.8035 76.63 53.8035 75.79C53.8035 74.93 53.5435 74.29 53.0235 73.87C52.5235 73.45 51.8535 73.24 51.0135 73.24H45.9735V69.91H51.4935C52.8935 69.91 54.0635 70.17 55.0035 70.69C55.9635 71.19 56.6835 71.86 57.1635 72.7C57.6435 73.52 57.8835 74.42 57.8835 75.4C57.8835 76.6 57.5135 77.64 56.7735 78.52C56.0535 79.38 54.9935 80.02 53.5935 80.44L53.7735 79.12C55.3335 79.56 56.5335 80.29 57.3735 81.31C58.2335 82.31 58.6635 83.52 58.6635 84.94C58.6635 86.06 58.3835 87.08 57.8235 88C57.2835 88.9 56.4835 89.63 55.4235 90.19C54.3835 90.73 53.1135 91 51.6135 91H45.9735ZM42.9735 91V69.91H47.0235V91H42.9735ZM61.8993 91V69.91H65.9793V91H61.8993ZM64.8993 91V87.4H76.5693V91H64.8993ZM64.8993 81.97V78.49H75.5193V81.97H64.8993ZM64.8993 73.51V69.91H76.4193V73.51H64.8993ZM91.9255 91.3C90.2255 91.3 88.7655 91.01 87.5455 90.43C86.3455 89.85 85.2555 88.98 84.2755 87.82L86.9755 85.12C87.5955 85.94 88.3155 86.58 89.1355 87.04C89.9555 87.48 90.9555 87.7 92.1355 87.7C93.1955 87.7 94.0355 87.49 94.6555 87.07C95.2955 86.65 95.6155 86.07 95.6155 85.33C95.6155 84.69 95.4355 84.17 95.0755 83.77C94.7155 83.37 94.2355 83.03 93.6355 82.75C93.0555 82.47 92.4055 82.22 91.6855 82C90.9855 81.76 90.2755 81.49 89.5555 81.19C88.8555 80.89 88.2055 80.52 87.6055 80.08C87.0255 79.62 86.5555 79.04 86.1955 78.34C85.8355 77.62 85.6555 76.72 85.6555 75.64C85.6555 74.36 85.9655 73.27 86.5855 72.37C87.2055 71.47 88.0555 70.78 89.1355 70.3C90.2155 69.82 91.4355 69.58 92.7955 69.58C94.2355 69.58 95.5355 69.85 96.6955 70.39C97.8555 70.93 98.8055 71.63 99.5455 72.49L96.8455 75.19C96.2255 74.51 95.5855 74.01 94.9255 73.69C94.2855 73.37 93.5555 73.21 92.7355 73.21C91.7955 73.21 91.0555 73.39 90.5155 73.75C89.9755 74.11 89.7055 74.63 89.7055 75.31C89.7055 75.89 89.8855 76.36 90.2455 76.72C90.6055 77.08 91.0755 77.39 91.6555 77.65C92.2555 77.91 92.9055 78.16 93.6055 78.4C94.3255 78.64 95.0355 78.91 95.7355 79.21C96.4555 79.51 97.1055 79.9 97.6855 80.38C98.2855 80.86 98.7655 81.48 99.1255 82.24C99.4855 82.98 99.6655 83.9 99.6655 85C99.6655 86.96 98.9755 88.5 97.5955 89.62C96.2155 90.74 94.3255 91.3 91.9255 91.3ZM107.256 91V70.36H111.366V91H107.256ZM100.536 73.54V69.91H118.086V73.54H100.536ZM116.589 91L125.079 69.91H128.409L136.869 91H132.519L125.979 73.69H127.479L120.849 91H116.589ZM121.089 87.07V83.65H132.429V87.07H121.089ZM142.061 91V70.36H146.171V91H142.061ZM135.341 73.54V69.91H152.891V73.54H135.341ZM155.708 91V69.91H159.788V91H155.708ZM173.986 91.33C172.446 91.33 171.006 91.05 169.666 90.49C168.346 89.93 167.186 89.16 166.186 88.18C165.206 87.18 164.436 86.02 163.876 84.7C163.316 83.36 163.036 81.93 163.036 80.41C163.036 78.89 163.306 77.48 163.846 76.18C164.406 74.86 165.176 73.71 166.156 72.73C167.156 71.73 168.316 70.96 169.636 70.42C170.956 69.86 172.386 69.58 173.926 69.58C175.486 69.58 176.926 69.86 178.246 70.42C179.566 70.96 180.716 71.73 181.696 72.73C182.696 73.71 183.476 74.86 184.036 76.18C184.596 77.5 184.876 78.92 184.876 80.44C184.876 81.96 184.596 83.38 184.036 84.7C183.476 86.02 182.696 87.18 181.696 88.18C180.716 89.16 179.566 89.93 178.246 90.49C176.946 91.05 175.526 91.33 173.986 91.33ZM173.926 87.52C175.286 87.52 176.466 87.22 177.466 86.62C178.466 86.02 179.246 85.19 179.806 84.13C180.386 83.07 180.676 81.83 180.676 80.41C180.676 79.37 180.516 78.42 180.196 77.56C179.876 76.7 179.416 75.96 178.816 75.34C178.216 74.7 177.506 74.21 176.686 73.87C175.866 73.53 174.946 73.36 173.926 73.36C172.606 73.36 171.436 73.66 170.416 74.26C169.416 74.84 168.626 75.66 168.046 76.72C167.486 77.78 167.206 79.01 167.206 80.41C167.206 81.47 167.366 82.44 167.686 83.32C168.026 84.2 168.486 84.95 169.066 85.57C169.666 86.19 170.376 86.67 171.196 87.01C172.036 87.35 172.946 87.52 173.926 87.52ZM188.11 91V69.91H190.96L192.19 73.99V91H188.11ZM202.69 91L190.18 74.8L190.96 69.91L203.47 86.11L202.69 91ZM202.69 91L201.52 87.04V69.91H205.63V91H202.69Z" fill="white"/>
<defs>
<filter id="filter0_d_1047_742" x="10.2437" y="33.757" width="166.571" height="34.3058" filterUnits="userSpaceOnUse" color-interpolation-filters="sRGB">
<feFlood flood-opacity="0" result="BackgroundImageFix"/>
<feColorMatrix in="SourceAlpha" type="matrix" values="0 0 0 0 0 0 0 0 0 0 0 0 0 0 0 0 0 0 127 0" result="hardAlpha"/>
<feOffset dy="2.79538"/>
<feGaussianBlur stdDeviation="1.39769"/>
<feComposite in2="hardAlpha" operator="out"/>
<feColorMatrix type="matrix" values="0 0 0 0 0.152941 0 0 0 0 0.0588235 0 0 0 0 0.243137 0 0 0 1 0"/>
<feBlend mode="normal" in2="BackgroundImageFix" result="effect1_dropShadow_1047_742"/>
<feBlend mode="normal" in="SourceGraphic" in2="effect1_dropShadow_1047_742" result="shape"/>
</filter>
<linearGradient id="paint0_linear_1047_742" x1="6.64457" y1="1" x2="6.64457" y2="93.4134" gradientUnits="userSpaceOnUse">
<stop stop-color="#FEDCB2"/>
<stop offset="0.164" stop-color="#FE61B5"/>
<stop offset="0.804" stop-color="#7973FE"/>
<stop offset="1" stop-color="#7CC0FF"/>
</linearGradient>
<linearGradient id="paint1_linear_1047_742" x1="12" y1="47" x2="175" y2="47" gradientUnits="userSpaceOnUse">
<stop stop-color="#FEDCB2"/>
<stop offset="0.184" stop-color="#FF52C6"/>
<stop offset="0.844" stop-color="#7A65FD"/>
<stop offset="1" stop-color="#7CC0FF"/>
</linearGradient>
</defs>
</svg>
