<svg width="367" height="304" viewBox="0 0 367 304" fill="none" xmlns="http://www.w3.org/2000/svg">
<circle cx="119" cy="119" r="118.383" stroke="#7CC0FF" stroke-width="1.23316" stroke-dasharray="9.87 9.87"/>
<circle cx="245.137" cy="175.137" r="120.509" stroke="#FF52C6" stroke-width="1.2553" stroke-dasharray="10.04 10.04"/>
<mask id="path-3-inside-1_1046_741" fill="white">
<path fill-rule="evenodd" clip-rule="evenodd" d="M279.174 94.9879C280.648 95.8393 281.844 97.9098 281.844 99.6125V116.569C281.844 118.272 280.648 118.962 279.174 118.111L195.736 69.938C194.261 69.0867 193.066 67.0162 193.066 65.3134V59.1919L192.134 59.5542L188.665 50.9436L193.224 47.4011C193.444 46.8226 193.882 46.4889 194.443 46.4536L194.446 46.4512L194.448 46.4533C194.83 46.4304 195.269 46.5454 195.736 46.8151L279.174 94.9879Z"/>
</mask>
<path fill-rule="evenodd" clip-rule="evenodd" d="M279.174 94.9879C280.648 95.8393 281.844 97.9098 281.844 99.6125V116.569C281.844 118.272 280.648 118.962 279.174 118.111L195.736 69.938C194.261 69.0867 193.066 67.0162 193.066 65.3134V59.1919L192.134 59.5542L188.665 50.9436L193.224 47.4011C193.444 46.8226 193.882 46.4889 194.443 46.4536L194.446 46.4512L194.448 46.4533C194.83 46.4304 195.269 46.5454 195.736 46.8151L279.174 94.9879Z" fill="#D9D9D9"/>
<path d="M279.174 94.9879L279.251 94.8544L279.251 94.8544L279.174 94.9879ZM279.174 118.111L279.097 118.244L279.097 118.244L279.174 118.111ZM195.736 69.938L195.659 70.0715L195.659 70.0715L195.736 69.938ZM193.066 59.1919L193.01 59.0483L193.22 58.9667V59.1919H193.066ZM192.134 59.5542L192.19 59.6979L192.048 59.753L191.991 59.6118L192.134 59.5542ZM188.665 50.9436L188.522 51.0012L188.479 50.8933L188.571 50.8219L188.665 50.9436ZM193.224 47.4011L193.368 47.456L193.352 47.4963L193.318 47.5228L193.224 47.4011ZM194.443 46.4536L194.538 46.5753L194.5 46.6044L194.453 46.6074L194.443 46.4536ZM194.446 46.4512L194.352 46.3294L194.473 46.2352L194.568 46.3562L194.446 46.4512ZM194.448 46.4533L194.457 46.6072L194.376 46.612L194.326 46.5483L194.448 46.4533ZM195.736 46.8151L195.659 46.9486L195.659 46.9486L195.736 46.8151ZM281.69 99.6125C281.69 98.7945 281.401 97.8777 280.928 97.058C280.455 96.2383 279.805 95.5304 279.097 95.1214L279.251 94.8544C280.017 95.2968 280.702 96.0497 281.195 96.9038C281.688 97.758 281.998 98.7277 281.998 99.6125H281.69ZM281.69 116.569V99.6125H281.998V116.569H281.69ZM279.251 117.977C279.96 118.387 280.566 118.406 280.985 118.164C281.403 117.923 281.69 117.388 281.69 116.569H281.998C281.998 117.453 281.686 118.115 281.139 118.431C280.591 118.748 279.862 118.686 279.097 118.244L279.251 117.977ZM195.813 69.8045L279.251 117.977L279.097 118.244L195.659 70.0715L195.813 69.8045ZM193.22 65.3134C193.22 66.1314 193.508 67.0483 193.982 67.8679C194.455 68.6876 195.105 69.3956 195.813 69.8045L195.659 70.0715C194.893 69.6291 194.208 68.8762 193.715 68.0221C193.221 67.168 192.912 66.1982 192.912 65.3134H193.22ZM193.22 59.1919V65.3134H192.912V59.1919H193.22ZM193.122 59.3356L192.19 59.6979L192.078 59.4105L193.01 59.0483L193.122 59.3356ZM191.991 59.6118L188.522 51.0012L188.808 50.886L192.277 59.4966L191.991 59.6118ZM188.571 50.8219L193.129 47.2793L193.318 47.5228L188.76 51.0654L188.571 50.8219ZM194.453 46.6074C193.957 46.6386 193.569 46.9285 193.368 47.456L193.08 47.3461C193.32 46.7167 193.806 46.3392 194.433 46.2997L194.453 46.6074ZM194.348 46.3318L194.352 46.3294L194.541 46.573L194.538 46.5753L194.348 46.3318ZM194.568 46.3562L194.569 46.3583L194.326 46.5483L194.325 46.5462L194.568 46.3562ZM195.659 46.9486C195.211 46.6897 194.801 46.5865 194.457 46.6072L194.438 46.2994C194.858 46.2742 195.327 46.4011 195.813 46.6816L195.659 46.9486ZM279.097 95.1214L195.659 46.9486L195.813 46.6816L279.251 94.8544L279.097 95.1214Z" fill="black" mask="url(#path-3-inside-1_1046_741)"/>
<mask id="path-5-inside-2_1046_741" fill="white">
<path fill-rule="evenodd" clip-rule="evenodd" d="M304.536 108.862C308.222 110.99 311.211 116.166 311.211 120.423V138.921C311.211 141.33 310.254 142.928 308.756 143.476L303.496 147.421L298.486 140.484L299.778 140.028L288.516 133.526C284.829 131.398 281.841 126.221 281.841 121.965V109.124L280.072 109.745L278.191 103.535L282.935 99.8684C284.128 98.462 286.182 98.2648 288.516 99.6123L304.536 108.862Z"/>
</mask>
<path fill-rule="evenodd" clip-rule="evenodd" d="M304.536 108.862C308.222 110.99 311.211 116.166 311.211 120.423V138.921C311.211 141.33 310.254 142.928 308.756 143.476L303.496 147.421L298.486 140.484L299.778 140.028L288.516 133.526C284.829 131.398 281.841 126.221 281.841 121.965V109.124L280.072 109.745L278.191 103.535L282.935 99.8684C284.128 98.462 286.182 98.2648 288.516 99.6123L304.536 108.862Z" fill="#D9D9D9"/>
<path d="M304.536 108.862L304.459 108.995L304.459 108.995L304.536 108.862ZM308.756 143.476L308.663 143.353L308.681 143.339L308.703 143.331L308.756 143.476ZM303.496 147.421L303.588 147.544L303.463 147.639L303.371 147.511L303.496 147.421ZM298.486 140.484L298.361 140.574L298.24 140.407L298.435 140.339L298.486 140.484ZM299.778 140.028L299.855 139.895L300.145 140.062L299.829 140.174L299.778 140.028ZM288.516 133.526L288.593 133.392L288.593 133.392L288.516 133.526ZM281.841 109.124L281.79 108.978L281.995 108.906V109.124H281.841ZM280.072 109.745L280.123 109.891L279.971 109.944L279.924 109.79L280.072 109.745ZM278.191 103.535L278.043 103.579L278.013 103.478L278.097 103.413L278.191 103.535ZM282.935 99.8684L283.052 99.9681L283.042 99.9804L283.029 99.9903L282.935 99.8684ZM288.516 99.6123L288.439 99.7458L288.516 99.6123ZM311.057 120.423C311.057 118.328 310.32 115.996 309.122 113.921C307.924 111.846 306.273 110.043 304.459 108.995L304.613 108.728C306.485 109.809 308.171 111.658 309.389 113.767C310.607 115.876 311.365 118.261 311.365 120.423H311.057ZM311.057 138.921V120.423H311.365V138.921H311.057ZM308.703 143.331C310.118 142.814 311.057 141.293 311.057 138.921H311.365C311.365 141.367 310.391 143.042 308.809 143.621L308.703 143.331ZM308.848 143.6L303.588 147.544L303.403 147.298L308.663 143.353L308.848 143.6ZM303.371 147.511L298.361 140.574L298.611 140.394L303.621 147.331L303.371 147.511ZM298.435 140.339L299.727 139.883L299.829 140.174L298.537 140.63L298.435 140.339ZM288.593 133.392L299.855 139.895L299.701 140.162L288.439 133.659L288.593 133.392ZM281.995 121.965C281.995 124.059 282.731 126.391 283.929 128.466C285.127 130.541 286.779 132.345 288.593 133.392L288.439 133.659C286.567 132.579 284.88 130.73 283.662 128.62C282.445 126.511 281.687 124.126 281.687 121.965H281.995ZM281.995 109.124V121.965H281.687V109.124H281.995ZM280.021 109.6L281.79 108.978L281.892 109.269L280.123 109.891L280.021 109.6ZM278.339 103.49L280.219 109.7L279.924 109.79L278.043 103.579L278.339 103.49ZM283.029 99.9903L278.285 103.657L278.097 103.413L282.84 99.7464L283.029 99.9903ZM288.439 99.7458C286.142 98.4195 284.179 98.6399 283.052 99.9681L282.817 99.7686C284.076 98.2841 286.222 98.1101 288.593 99.4788L288.439 99.7458ZM304.459 108.995L288.439 99.7458L288.593 99.4788L304.613 108.728L304.459 108.995Z" fill="black" mask="url(#path-5-inside-2_1046_741)"/>
<rect x="-0.0667502" y="0.0385382" width="33.7595" height="33.7595" rx="7.63057" transform="matrix(-0.866025 -0.5 0 1 305.688 116.942)" fill="#ADC4CB" stroke="black" stroke-width="0.154153"/>
<rect x="-0.0667502" y="0.0385382" width="102.358" height="22.9688" rx="3.00598" transform="matrix(-0.866025 -0.5 0 1 276.317 100.756)" fill="white" stroke="black" stroke-width="0.154153"/>
<rect x="-0.0667502" y="0.0385382" width="57.6532" height="13.7196" rx="3.00598" transform="matrix(-0.866025 -0.5 0 1 269.641 101.527)" fill="#FF52C6" stroke="black" stroke-width="0.154153"/>
<mask id="path-10-inside-3_1046_741" fill="white">
<path fill-rule="evenodd" clip-rule="evenodd" d="M71.7169 94.2169C70.2423 95.0683 69.0469 97.1388 69.0469 98.8415V115.798C69.0469 117.501 70.2423 118.191 71.7169 117.34L155.155 69.167C156.629 68.3157 157.825 66.2452 157.825 64.5425V58.4172L158.765 58.7826L162.233 50.1721L157.663 46.6203C157.443 46.0512 157.011 45.7216 156.457 45.6832L156.453 45.6796L156.45 45.6827C156.067 45.6579 155.625 45.7727 155.155 46.0441L71.7169 94.2169Z"/>
</mask>
<path fill-rule="evenodd" clip-rule="evenodd" d="M71.7169 94.2169C70.2423 95.0683 69.0469 97.1388 69.0469 98.8415V115.798C69.0469 117.501 70.2423 118.191 71.7169 117.34L155.155 69.167C156.629 68.3157 157.825 66.2452 157.825 64.5425V58.4172L158.765 58.7826L162.233 50.1721L157.663 46.6203C157.443 46.0512 157.011 45.7216 156.457 45.6832L156.453 45.6796L156.45 45.6827C156.067 45.6579 155.625 45.7727 155.155 46.0441L71.7169 94.2169Z" fill="#D9D9D9"/>
<path d="M71.7169 94.2169L71.6398 94.0834L71.6398 94.0834L71.7169 94.2169ZM71.7169 117.34L71.6398 117.206L71.6398 117.206L71.7169 117.34ZM155.155 69.167L155.232 69.3005L155.232 69.3005L155.155 69.167ZM157.825 58.4172L157.88 58.2736L157.67 58.192V58.4172H157.825ZM158.765 58.7826L158.709 58.9263L158.851 58.9815L158.908 58.8402L158.765 58.7826ZM162.233 50.1721L162.376 50.2297L162.42 50.1218L162.328 50.0504L162.233 50.1721ZM157.663 46.6203L157.519 46.676L157.535 46.7158L157.568 46.742L157.663 46.6203ZM156.457 45.6832L156.363 45.8049L156.4 45.8338L156.447 45.837L156.457 45.6832ZM156.453 45.6796L156.547 45.5579L156.426 45.4636L156.331 45.5847L156.453 45.6796ZM156.45 45.6827L156.44 45.8366L156.522 45.8418L156.572 45.7777L156.45 45.6827ZM155.155 46.0441L155.078 45.9106L155.078 45.9106L155.155 46.0441ZM69.201 98.8415C69.201 98.0235 69.4892 97.1067 69.9624 96.287C70.4356 95.4673 71.0856 94.7594 71.794 94.3504L71.6398 94.0834C70.8736 94.5258 70.1885 95.2787 69.6954 96.1329C69.2023 96.987 68.8927 97.9567 68.8927 98.8415H69.201ZM69.201 115.798V98.8415H68.8927V115.798H69.201ZM71.6398 117.206C70.9306 117.616 70.3246 117.635 69.906 117.393C69.4873 117.152 69.201 116.617 69.201 115.798H68.8927C68.8927 116.682 69.2041 117.344 69.7518 117.66C70.2995 117.977 71.0286 117.915 71.794 117.473L71.6398 117.206ZM155.078 69.0335L71.6398 117.206L71.794 117.473L155.232 69.3005L155.078 69.0335ZM157.67 64.5425C157.67 65.3604 157.382 66.2773 156.909 67.0969C156.436 67.9166 155.786 68.6246 155.078 69.0335L155.232 69.3005C155.998 68.8581 156.683 68.1052 157.176 67.2511C157.669 66.397 157.979 65.4272 157.979 64.5425H157.67ZM157.67 58.4172V64.5425H157.979V58.4172H157.67ZM157.769 58.5609L158.709 58.9263L158.821 58.6389L157.88 58.2736L157.769 58.5609ZM158.908 58.8402L162.376 50.2297L162.09 50.1145L158.622 58.725L158.908 58.8402ZM162.328 50.0504L157.758 46.4986L157.568 46.742L162.139 50.2938L162.328 50.0504ZM156.447 45.837C156.935 45.8708 157.318 46.1572 157.519 46.676L157.807 46.5646C157.567 45.9451 157.087 45.5723 156.468 45.5294L156.447 45.837ZM156.552 45.5615L156.547 45.5579L156.358 45.8013L156.363 45.8049L156.552 45.5615ZM156.331 45.5847L156.329 45.5878L156.572 45.7777L156.574 45.7745L156.331 45.5847ZM155.232 46.1776C155.683 45.9171 156.095 45.8142 156.44 45.8366L156.46 45.5289C156.038 45.5016 155.567 45.6283 155.078 45.9106L155.232 46.1776ZM71.794 94.3504L155.232 46.1776L155.078 45.9106L71.6398 94.0834L71.794 94.3504Z" fill="black" mask="url(#path-10-inside-3_1046_741)"/>
<mask id="path-12-inside-4_1046_741" fill="white">
<path fill-rule="evenodd" clip-rule="evenodd" d="M46.3547 108.091C42.6682 110.22 39.6797 115.396 39.6797 119.653V138.151C39.6797 140.56 40.6367 142.159 42.1357 142.706L47.3947 146.651L52.4047 139.714L51.113 139.258L62.3747 132.756C66.0613 130.628 69.0498 125.451 69.0498 121.194V108.353L70.8188 108.975L72.6995 102.764L67.9554 99.0976C66.7621 97.6919 64.7083 97.4951 62.3748 98.8423L46.3547 108.091Z"/>
</mask>
<path fill-rule="evenodd" clip-rule="evenodd" d="M46.3547 108.091C42.6682 110.22 39.6797 115.396 39.6797 119.653V138.151C39.6797 140.56 40.6367 142.159 42.1357 142.706L47.3947 146.651L52.4047 139.714L51.113 139.258L62.3747 132.756C66.0613 130.628 69.0498 125.451 69.0498 121.194V108.353L70.8188 108.975L72.6995 102.764L67.9554 99.0976C66.7621 97.6919 64.7083 97.4951 62.3748 98.8423L46.3547 108.091Z" fill="#D9D9D9"/>
<path d="M46.3547 108.091L46.4318 108.225L46.4318 108.225L46.3547 108.091ZM42.1357 142.706L42.2282 142.583L42.21 142.569L42.1886 142.562L42.1357 142.706ZM47.3947 146.651L47.3022 146.774L47.4278 146.868L47.5197 146.741L47.3947 146.651ZM52.4047 139.714L52.5296 139.804L52.6503 139.637L52.456 139.568L52.4047 139.714ZM51.113 139.258L51.0359 139.124L50.7459 139.292L51.0617 139.403L51.113 139.258ZM62.3747 132.756L62.2977 132.622L62.2977 132.622L62.3747 132.756ZM69.0498 108.353L69.1009 108.208L68.8956 108.136V108.353H69.0498ZM70.8188 108.975L70.7677 109.12L70.9197 109.174L70.9664 109.019L70.8188 108.975ZM72.6995 102.764L72.847 102.809L72.8778 102.707L72.7937 102.642L72.6995 102.764ZM67.9554 99.0976L67.8379 99.1973L67.8483 99.2096L67.8611 99.2195L67.9554 99.0976ZM62.3748 98.8423L62.2977 98.7088L62.2977 98.7088L62.3748 98.8423ZM39.8338 119.653C39.8338 117.558 40.5703 115.226 41.7683 113.151C42.9663 111.076 44.6175 109.272 46.4318 108.225L46.2776 107.958C44.4054 109.039 42.7191 110.888 41.5013 112.997C40.2834 115.106 39.5255 117.491 39.5255 119.653H39.8338ZM39.8338 138.151V119.653H39.5255V138.151H39.8338ZM42.1886 142.562C40.773 142.044 39.8338 140.523 39.8338 138.151H39.5255C39.5255 140.597 40.5004 142.273 42.0828 142.851L42.1886 142.562ZM42.0432 142.83L47.3022 146.774L47.4872 146.527L42.2282 142.583L42.0432 142.83ZM47.5197 146.741L52.5296 139.804L52.2797 139.624L47.2697 146.56L47.5197 146.741ZM52.456 139.568L51.1643 139.113L51.0617 139.403L52.3534 139.859L52.456 139.568ZM62.2977 132.622L51.0359 139.124L51.1901 139.391L62.4518 132.889L62.2977 132.622ZM68.8956 121.194C68.8956 123.289 68.1592 125.621 66.9612 127.696C65.7632 129.771 64.112 131.575 62.2977 132.622L62.4518 132.889C64.324 131.809 66.0103 129.96 67.2282 127.85C68.4461 125.741 69.2039 123.356 69.2039 121.194H68.8956ZM68.8956 108.353V121.194H69.2039V108.353H68.8956ZM70.8699 108.829L69.1009 108.208L68.9987 108.499L70.7677 109.12L70.8699 108.829ZM72.5519 102.72L70.6713 108.93L70.9664 109.019L72.847 102.809L72.5519 102.72ZM67.8611 99.2195L72.6052 102.886L72.7937 102.642L68.0497 98.9756L67.8611 99.2195ZM62.4518 98.9758C64.7486 97.6497 66.711 97.8698 67.8379 99.1973L68.0729 98.9978C66.8133 97.514 64.6679 97.3404 62.2977 98.7088L62.4518 98.9758ZM46.4318 108.225L62.4518 98.9758L62.2977 98.7088L46.2776 107.958L46.4318 108.225Z" fill="black" mask="url(#path-12-inside-4_1046_741)"/>
<rect x="0.0667502" y="0.0385382" width="33.7595" height="33.7595" rx="7.63057" transform="matrix(0.866025 -0.5 0 1 45.0871 116.238)" fill="#ADC4CB" stroke="black" stroke-width="0.154153"/>
<rect x="0.0667502" y="0.0385382" width="102.358" height="22.9688" rx="3.00598" transform="matrix(0.866025 -0.5 0 1 74.4582 100.052)" fill="white" stroke="black" stroke-width="0.154153"/>
<rect x="0.0667502" y="0.0385382" width="57.6532" height="13.7196" rx="3.00598" transform="matrix(0.866025 -0.5 0 1 81.1339 100.823)" fill="#FF52C6" stroke="black" stroke-width="0.154153"/>
<rect x="-0.266994" width="27.432" height="27.3776" transform="matrix(-0.866004 -0.500038 -0.866004 0.500038 273.724 221.278)" fill="#7CC0FF" stroke="black" stroke-width="0.308306"/>
<rect x="-0.266994" width="27.432" height="27.3776" transform="matrix(-0.866004 -0.500038 -0.866004 0.500038 225.939 193.531)" fill="#7CC0FF" stroke="black" stroke-width="0.308306"/>
<rect x="-0.266994" width="27.432" height="27.3776" transform="matrix(-0.866004 -0.500038 -0.866004 0.500038 249.826 235.152)" fill="white" stroke="black" stroke-width="0.308306"/>
<rect x="-0.133503" y="0.231234" width="27.4232" height="63.8816" transform="matrix(-0.866007 0.500033 -3.7679e-05 1 297.048 170.611)" fill="white" stroke="black" stroke-width="0.308306"/>
<rect x="0.133503" y="0.231234" width="27.3815" height="63.8816" transform="matrix(0.866007 0.500033 3.7679e-05 1 249.491 170.477)" fill="#ADC4CB" stroke="black" stroke-width="0.308306"/>
<rect x="-0.266994" width="27.432" height="27.3776" transform="matrix(-0.866004 -0.500038 -0.866004 0.500038 296.795 170.408)" fill="#FF52C6" stroke="black" stroke-width="0.308306"/>
<rect x="-0.266994" width="27.432" height="27.3776" transform="matrix(-0.866004 -0.500038 -0.866004 0.500038 272.947 248.255)" fill="#FF52C6" stroke="black" stroke-width="0.308306"/>
<rect x="-0.266994" width="27.432" height="27.3776" transform="matrix(-0.866004 -0.500038 -0.866004 0.500038 225.931 221.278)" fill="#FEDCB2" stroke="black" stroke-width="0.308306"/>
<rect x="-0.266994" width="27.432" height="27.3776" transform="matrix(-0.866004 -0.500038 -0.866004 0.500038 202.041 207.404)" fill="#7CC0FF" stroke="black" stroke-width="0.308306"/>
<rect x="-0.266994" width="27.432" height="27.3776" transform="matrix(-0.866004 -0.500038 -0.866004 0.500038 178.146 193.531)" fill="#FF52C6" stroke="black" stroke-width="0.308306"/>
<rect x="-0.266994" width="27.432" height="27.3776" transform="matrix(-0.866004 -0.500038 -0.866004 0.500038 225.158 276.002)" fill="#7A65FD" stroke="black" stroke-width="0.308306"/>
<rect x="-0.266994" width="27.432" height="27.3776" transform="matrix(-0.866004 -0.500038 -0.866004 0.500038 201.267 289.876)" fill="#FF52C6" stroke="black" stroke-width="0.308306"/>
<rect x="-0.266994" width="27.432" height="27.3776" transform="matrix(-0.866004 -0.500038 -0.866004 0.500038 225.931 249.026)" fill="#FF52C6" stroke="black" stroke-width="0.308306"/>
<rect x="-0.266994" width="27.432" height="27.3776" transform="matrix(-0.866004 -0.500038 -0.866004 0.500038 202.041 235.152)" fill="white" stroke="black" stroke-width="0.308306"/>
<rect x="-0.266994" width="27.432" height="27.3776" transform="matrix(-0.866004 -0.500038 -0.866004 0.500038 178.146 221.278)" fill="#FF52C6" stroke="black" stroke-width="0.308306"/>
<rect x="-0.266994" width="27.432" height="27.3776" transform="matrix(-0.866004 -0.500038 -0.866004 0.500038 154.248 262.899)" fill="white" stroke="black" stroke-width="0.308306"/>
<rect x="-0.266994" width="27.432" height="27.3776" transform="matrix(-0.866004 -0.500038 -0.866004 0.500038 130.353 249.026)" fill="white" stroke="black" stroke-width="0.308306"/>
<rect x="-0.266994" width="27.432" height="27.3776" transform="matrix(-0.866004 -0.500038 -0.866004 0.500038 130.353 221.278)" fill="white" stroke="black" stroke-width="0.308306"/>
<rect x="-0.266994" width="27.432" height="27.3776" transform="matrix(-0.866004 -0.500038 -0.866004 0.500038 178.146 249.026)" fill="#FF52C6" stroke="black" stroke-width="0.308306"/>
<rect x="-0.266994" width="27.432" height="27.3776" transform="matrix(-0.866004 -0.500038 -0.866004 0.500038 202.072 141.89)" fill="#FF52C6" stroke="black" stroke-width="0.308306"/>
<rect x="-0.170722" width="17.5406" height="17.5058" transform="matrix(-0.866004 -0.500038 -0.866004 0.500038 193.744 141.561)" fill="#FEDCB2" stroke="black" stroke-width="0.197137"/>
<rect x="-0.133512" y="0.231229" width="27.3815" height="37.4505" transform="matrix(-0.866026 0.5 -7.52446e-05 1 202.317 142.093)" fill="white" stroke="black" stroke-width="0.308306"/>
<rect x="0.133512" y="0.231229" width="27.3815" height="37.4505" transform="matrix(0.866026 0.5 7.52446e-05 1 154.756 142.037)" fill="white" stroke="black" stroke-width="0.308306"/>
<rect x="-0.266994" width="27.432" height="27.3776" transform="matrix(-0.866004 -0.500038 -0.866004 0.500038 249.056 262.129)" fill="#FEDCB2" stroke="black" stroke-width="0.308306"/>
<rect x="-0.266994" width="27.432" height="27.3776" transform="matrix(-0.866004 -0.500038 -0.866004 0.500038 249.056 255.192)" fill="#FEDCB2" stroke="black" stroke-width="0.308306"/>
<path d="M249.555 262.265V255.328L225.661 269.202V276.139L249.555 262.265Z" fill="#D9D9D9" stroke="black" stroke-width="0.308306"/>
<path d="M201.77 262.265V255.328L225.663 269.202V276.139L201.77 262.265Z" fill="#ADC4CB" stroke="black" stroke-width="0.308306"/>
<rect x="-0.266994" width="27.432" height="27.3776" transform="matrix(-0.866004 -0.500038 -0.866004 0.500038 201.267 262.129)" fill="#FEDCB2" stroke="black" stroke-width="0.308306"/>
<rect x="-0.266994" width="27.432" height="27.3776" transform="matrix(-0.866004 -0.500038 -0.866004 0.500038 201.267 255.192)" fill="#FEDCB2" stroke="black" stroke-width="0.308306"/>
<path d="M201.766 262.265V255.328L177.872 269.202V276.139L201.766 262.265Z" fill="#D9D9D9" stroke="black" stroke-width="0.308306"/>
<path d="M153.98 262.265V255.328L177.874 269.202V276.139L153.98 262.265Z" fill="#ADC4CB" stroke="black" stroke-width="0.308306"/>
<rect x="-0.266994" width="27.432" height="27.3776" transform="matrix(-0.866004 -0.500038 -0.866004 0.500038 154.248 207.404)" fill="#FEDCB2" stroke="black" stroke-width="0.308306"/>
<rect x="-0.266994" width="27.432" height="27.3776" transform="matrix(-0.866004 -0.500038 -0.866004 0.500038 154.248 200.467)" fill="#FEDCB2" stroke="black" stroke-width="0.308306"/>
<path d="M154.746 207.54V200.604L130.852 214.477V221.414L154.746 207.54Z" fill="#D9D9D9" stroke="black" stroke-width="0.308306"/>
<path d="M106.961 207.54V200.604L130.855 214.477V221.414L106.961 207.54Z" fill="#ADC4CB" stroke="black" stroke-width="0.308306"/>
<rect x="-0.266994" width="27.432" height="27.3776" transform="matrix(-0.866004 -0.500038 -0.866004 0.500038 154.248 235.152)" fill="#FEDCB2" stroke="black" stroke-width="0.308306"/>
<rect x="-0.266994" width="27.432" height="27.3776" transform="matrix(-0.866004 -0.500038 -0.866004 0.500038 154.248 228.215)" fill="#FEDCB2" stroke="black" stroke-width="0.308306"/>
<path d="M154.746 235.288V228.351L130.852 242.225V249.162L154.746 235.288Z" fill="#D9D9D9" stroke="black" stroke-width="0.308306"/>
<path d="M106.961 235.288V228.351L130.855 242.225V249.162L106.961 235.288Z" fill="#ADC4CB" stroke="black" stroke-width="0.308306"/>
<rect x="-0.266994" width="27.432" height="27.3776" transform="matrix(-0.866004 -0.500038 -0.866004 0.500038 249.826 207.404)" fill="#FEDCB2" stroke="black" stroke-width="0.308306"/>
<rect x="-0.266994" width="27.432" height="27.3776" transform="matrix(-0.866004 -0.500038 -0.866004 0.500038 249.826 200.467)" fill="#FEDCB2" stroke="black" stroke-width="0.308306"/>
<path d="M250.324 207.54V200.604L226.431 214.477V221.414L250.324 207.54Z" fill="#D9D9D9" stroke="black" stroke-width="0.308306"/>
<path d="M202.539 207.54V200.604L226.433 214.477V221.414L202.539 207.54Z" fill="#ADC4CB" stroke="black" stroke-width="0.308306"/>
<rect x="-0.266994" width="27.432" height="27.3776" transform="matrix(-0.866004 -0.500038 -0.866004 0.500038 177.369 276.005)" fill="#FEDCB2" stroke="black" stroke-width="0.308306"/>
<rect x="-0.266994" width="27.432" height="27.3776" transform="matrix(-0.866004 -0.500038 -0.866004 0.500038 177.369 252.108)" fill="white" stroke="black" stroke-width="0.308306"/>
<path d="M177.867 276.139V252.245L153.973 266.119V290.012L177.867 276.139Z" fill="white" stroke="black" stroke-width="0.308306"/>
<path d="M130.082 276.139V252.245L153.976 266.119V290.012L130.082 276.139Z" fill="#ADC4CB" stroke="black" stroke-width="0.308306"/>
<rect x="-0.133503" y="0.231234" width="27.4232" height="63.8816" transform="matrix(-0.866007 0.500033 -3.7679e-05 1 106.665 171.381)" fill="white" stroke="black" stroke-width="0.308306"/>
<rect x="0.133503" y="0.231234" width="27.3815" height="63.8816" transform="matrix(0.866007 0.500033 3.7679e-05 1 59.1038 171.247)" fill="#ADC4CB" stroke="black" stroke-width="0.308306"/>
<rect x="-0.266994" width="27.432" height="27.3776" transform="matrix(-0.866004 -0.500038 -0.866004 0.500038 106.416 171.178)" fill="#7CC0FF" stroke="black" stroke-width="0.308306"/>
<path d="M283.83 151.932L285.636 153.196L285.058 154.406L282.818 153.377L283.83 151.932Z" fill="#F2F2F2" stroke="black" stroke-width="0.176396"/>
<path d="M269.337 173.01L271.144 174.274L272.083 173.317L270.349 171.565L269.337 173.01Z" fill="#F2F2F2" stroke="black" stroke-width="0.176396"/>
<path d="M279.319 153.444C274.136 155.861 269.531 162.438 269.033 168.134C268.534 173.831 272.331 176.489 277.513 174.072C282.695 171.656 287.301 165.079 287.799 159.382C288.298 153.686 284.501 151.028 279.319 153.444Z" fill="white" stroke="black" stroke-width="0.176396"/>
<mask id="path-70-inside-5_1046_741" fill="white">
<path d="M277.52 152.092C272.293 154.53 267.649 161.163 267.146 166.907C266.643 172.652 270.472 175.333 275.699 172.896C280.925 170.459 285.57 163.826 286.072 158.081C286.575 152.336 282.746 149.655 277.52 152.092Z"/>
</mask>
<path d="M277.52 152.092C272.293 154.53 267.649 161.163 267.146 166.907C266.643 172.652 270.472 175.333 275.699 172.896C280.925 170.459 285.57 163.826 286.072 158.081C286.575 152.336 282.746 149.655 277.52 152.092Z" fill="url(#paint0_linear_1046_741)"/>
<path d="M277.594 152.252C275.016 153.455 272.57 155.698 270.706 158.361C268.842 161.023 267.57 164.088 267.322 166.923L266.97 166.892C267.225 163.981 268.527 160.858 270.417 158.158C272.307 155.459 274.797 153.167 277.445 151.932L277.594 152.252ZM267.322 166.923C267.074 169.758 267.897 171.791 269.375 172.826C270.853 173.86 273.045 173.939 275.624 172.736L275.773 173.056C273.126 174.29 270.79 174.247 269.173 173.115C267.555 171.982 266.716 169.801 266.97 166.892L267.322 166.923ZM275.624 172.736C278.203 171.534 280.648 169.29 282.512 166.628C284.377 163.965 285.649 160.9 285.897 158.066L286.248 158.096C285.993 161.007 284.692 164.13 282.801 166.83C280.911 169.53 278.421 171.821 275.773 173.056L275.624 172.736ZM285.897 158.066C286.145 155.23 285.321 153.198 283.843 152.163C282.365 151.128 280.174 151.049 277.594 152.252L277.445 151.932C280.092 150.698 282.428 150.741 284.046 151.874C285.663 153.006 286.503 155.187 286.248 158.096L285.897 158.066Z" fill="black" mask="url(#path-70-inside-5_1046_741)"/>
<path d="M277.092 154.441C273.248 156.234 269.831 161.113 269.462 165.338C269.092 169.564 271.908 171.536 275.752 169.743C279.597 167.95 283.013 163.072 283.383 158.846C283.752 154.621 280.936 152.648 277.092 154.441Z" fill="#F2F2F2" stroke="black" stroke-width="0.176396"/>
<path d="M264.823 143.761L265.829 142.682L266.577 143.178L265.686 144.566L264.823 143.761Z" fill="#F2F2F2" stroke="black" stroke-width="0.118017"/>
<path d="M277.436 155.324L278.442 154.245L277.896 153.534L276.573 154.519L277.436 155.324Z" fill="#F2F2F2" stroke="black" stroke-width="0.118017"/>
<path d="M265.408 146.892C266.527 150.55 270.456 154.214 274.183 155.074C277.911 155.935 280.026 153.667 278.907 150.009C277.788 146.35 273.86 142.687 270.132 141.826C266.405 140.965 264.29 143.233 265.408 146.892Z" fill="white" stroke="black" stroke-width="0.118017"/>
<mask id="path-76-inside-6_1046_741" fill="white">
<path d="M264.332 147.957C265.46 151.647 269.422 155.342 273.182 156.21C276.941 157.078 279.074 154.791 277.946 151.101C276.818 147.411 272.855 143.717 269.096 142.849C265.337 141.98 263.204 144.268 264.332 147.957Z"/>
</mask>
<path d="M264.332 147.957C265.46 151.647 269.422 155.342 273.182 156.21C276.941 157.078 279.074 154.791 277.946 151.101C276.818 147.411 272.855 143.717 269.096 142.849C265.337 141.98 263.204 144.268 264.332 147.957Z" fill="url(#paint1_linear_1046_741)"/>
<path d="M264.445 147.923C265.001 149.743 266.26 151.572 267.851 153.055C269.441 154.538 271.353 155.667 273.208 156.095L273.155 156.325C271.25 155.885 269.302 154.732 267.69 153.228C266.077 151.724 264.791 149.861 264.219 147.992L264.445 147.923ZM273.208 156.095C275.064 156.523 276.487 156.167 277.31 155.284C278.133 154.401 278.39 152.956 277.833 151.135L278.059 151.066C278.63 152.935 278.384 154.479 277.483 155.445C276.582 156.411 275.059 156.764 273.155 156.325L273.208 156.095ZM277.833 151.135C277.276 149.315 276.017 147.486 274.427 146.003C272.837 144.52 270.924 143.392 269.07 142.964L269.123 142.734C271.027 143.173 272.976 144.327 274.588 145.83C276.201 147.334 277.487 149.197 278.059 151.066L277.833 151.135ZM269.07 142.964C267.214 142.535 265.791 142.891 264.968 143.774C264.144 144.657 263.888 146.102 264.445 147.923L264.219 147.992C263.648 146.123 263.894 144.58 264.795 143.613C265.696 142.647 267.219 142.294 269.123 142.734L269.07 142.964Z" fill="black" mask="url(#path-76-inside-6_1046_741)"/>
<path d="M265.859 148.461C266.689 151.175 269.603 153.892 272.368 154.531C275.133 155.169 276.702 153.487 275.872 150.773C275.043 148.059 272.128 145.341 269.363 144.703C266.598 144.065 265.029 145.747 265.859 148.461Z" fill="#F2F2F2" stroke="black" stroke-width="0.118017"/>
<circle cx="6.58272" cy="6.58272" r="6.55047" transform="matrix(-0.961272 0.275601 -0.719366 -0.694631 91.6719 172.95)" fill="#F2F2F2" stroke="black" stroke-width="0.0644986"/>
<path d="M74.8626 165.909L75.875 165.619L76.1781 165.912L75.2414 166.275L74.8626 165.909Z" fill="#F2F2F2" stroke="black" stroke-width="0.0644986"/>
<path d="M84.3313 175.055L85.3438 174.765L84.8892 174.326L83.7631 174.506L84.3313 175.055Z" fill="#F2F2F2" stroke="black" stroke-width="0.0644986"/>
<mask id="path-82-inside-7_1046_741" fill="white">
<path fill-rule="evenodd" clip-rule="evenodd" d="M74.8577 165.909C71.363 166.911 70.65 169.77 73.2653 172.296C75.8806 174.821 80.8337 176.056 84.3285 175.054C87.8232 174.052 88.5361 171.193 85.9209 168.667C83.3056 166.142 78.3524 164.907 74.8577 165.909Z"/>
</mask>
<path fill-rule="evenodd" clip-rule="evenodd" d="M74.8577 165.909C71.363 166.911 70.65 169.77 73.2653 172.296C75.8806 174.821 80.8337 176.056 84.3285 175.054C87.8232 174.052 88.5361 171.193 85.9209 168.667C83.3056 166.142 78.3524 164.907 74.8577 165.909Z" fill="url(#paint2_linear_1046_741)"/>
<path d="M73.3273 172.278C70.7376 169.777 71.4436 166.946 74.9041 165.954L74.8113 165.864C71.2823 166.876 70.5624 169.764 73.2033 172.314L73.3273 172.278ZM84.2821 175.009C80.8216 176.002 75.917 174.779 73.3273 172.278L73.2033 172.314C75.8442 174.864 80.8459 176.111 84.3749 175.099L84.2821 175.009ZM85.8589 168.685C88.4485 171.186 87.7426 174.017 84.2821 175.009L84.3749 175.099C87.9038 174.087 88.6238 171.2 85.9829 168.65L85.8589 168.685ZM74.9041 165.954C78.3646 164.962 83.2692 166.185 85.8589 168.685L85.9829 168.65C83.342 166.1 78.3403 164.852 74.8113 165.864L74.9041 165.954Z" fill="black" mask="url(#path-82-inside-7_1046_741)"/>
<mask id="path-84-inside-8_1046_741" fill="white">
<path fill-rule="evenodd" clip-rule="evenodd" d="M76.3742 167.373C73.9977 168.054 73.5129 169.999 75.2913 171.716C77.0697 173.433 80.4379 174.273 82.8143 173.592C85.1907 172.91 85.6755 170.966 83.8971 169.249C82.1187 167.532 78.7506 166.692 76.3742 167.373Z"/>
</mask>
<path fill-rule="evenodd" clip-rule="evenodd" d="M76.3742 167.373C73.9977 168.054 73.5129 169.999 75.2913 171.716C77.0697 173.433 80.4379 174.273 82.8143 173.592C85.1907 172.91 85.6755 170.966 83.8971 169.249C82.1187 167.532 78.7506 166.692 76.3742 167.373Z" fill="#F2F2F2"/>
<path d="M75.3335 171.704C73.5725 170.004 74.0526 168.078 76.4057 167.404L76.3426 167.343C73.9429 168.031 73.4534 169.994 75.2492 171.728L75.3335 171.704ZM82.7827 173.561C80.4296 174.236 77.0945 173.404 75.3335 171.704L75.2492 171.728C77.045 173.462 80.4461 174.31 82.8458 173.622L82.7827 173.561ZM83.855 169.261C85.6159 170.961 85.1359 172.887 82.7827 173.561L82.8458 173.622C85.2456 172.934 85.7351 170.971 83.9393 169.237L83.855 169.261ZM76.4057 167.404C78.7589 166.729 82.094 167.56 83.855 169.261L83.9393 169.237C82.1435 167.503 78.7423 166.655 76.3426 167.343L76.4057 167.404Z" fill="black" mask="url(#path-84-inside-8_1046_741)"/>
<g clip-path="url(#clip0_1046_741)">
<path d="M75.9023 170.137L76.0869 169.255C76.091 169.236 76.1018 169.218 76.1187 169.204C76.1356 169.189 76.1582 169.177 76.1852 169.17L80.1985 168.019C80.2177 168.014 80.2405 168.012 80.2641 168.015C80.2878 168.018 80.3113 168.025 80.3317 168.035C80.3522 168.045 80.3687 168.058 80.3792 168.072C80.3897 168.086 80.3938 168.101 80.3909 168.115L80.2056 168.997C80.2016 169.016 80.1908 169.033 80.174 169.048C80.1572 169.063 80.1346 169.074 80.1077 169.082L76.0947 170.233C76.0755 170.238 76.0527 170.239 76.029 170.237C76.0054 170.234 75.9819 170.227 75.9614 170.217C75.941 170.207 75.9245 170.194 75.914 170.179C75.9035 170.165 75.8994 170.15 75.9023 170.137ZM78.0818 171.181C78.1146 171.19 78.1483 171.194 78.1809 171.195C78.2135 171.195 78.2442 171.192 78.2711 171.184L82.2844 170.033C82.3036 170.028 82.3182 170.018 82.3266 170.006C82.3349 169.994 82.3366 169.98 82.3315 169.966C82.3263 169.951 82.3145 169.937 82.2975 169.925C82.2805 169.912 82.259 169.902 82.2357 169.896L80.7266 169.5C80.6939 169.491 80.6603 169.487 80.6278 169.486C80.5953 169.486 80.5646 169.489 80.5377 169.497L76.5246 170.648C76.5055 170.653 76.4908 170.662 76.4824 170.674C76.4741 170.686 76.4724 170.701 76.4775 170.715C76.4827 170.73 76.4945 170.744 76.5116 170.756C76.5286 170.769 76.55 170.779 76.5733 170.785L78.0818 171.181ZM82.7143 170.448L78.7011 171.599C78.6741 171.607 78.6514 171.618 78.6345 171.633C78.6176 171.648 78.6068 171.665 78.6028 171.684L78.4181 172.566C78.4153 172.58 78.4194 172.595 78.4299 172.609C78.4404 172.623 78.4569 172.636 78.4773 172.646C78.4977 172.656 78.5212 172.663 78.5449 172.666C78.5686 172.669 78.5914 172.667 78.6105 172.662L82.6236 171.511C82.6504 171.504 82.673 171.492 82.6898 171.477C82.7067 171.463 82.7174 171.445 82.7214 171.426L82.9065 170.544C82.9094 170.531 82.9053 170.516 82.8948 170.502C82.8843 170.487 82.8679 170.474 82.8475 170.464C82.8271 170.454 82.8036 170.447 82.78 170.444C82.7563 170.442 82.7335 170.443 82.7143 170.448Z" fill="black"/>
</g>
<circle cx="6.58272" cy="6.58272" r="6.55047" transform="matrix(-0.515006 -0.857187 0.484777 -0.874638 85.207 175.258)" fill="#F2F2F2" stroke="black" stroke-width="0.0644986"/>
<path d="M87.6568 157.198L88.1992 158.101L87.995 158.469L87.4015 157.658L87.6568 157.198Z" fill="#F2F2F2" stroke="black" stroke-width="0.0644986"/>
<path d="M81.274 168.713L81.8164 169.616L82.1228 169.063L81.6569 168.022L81.274 168.713Z" fill="#F2F2F2" stroke="black" stroke-width="0.0644986"/>
<mask id="path-90-inside-9_1046_741" fill="white">
<path fill-rule="evenodd" clip-rule="evenodd" d="M87.664 157.197C85.7917 154.081 82.8452 154.132 81.0827 157.312C79.3203 160.492 79.4094 165.596 81.2817 168.712C83.1541 171.828 86.1006 171.777 87.863 168.597C89.6254 165.417 89.5364 160.313 87.664 157.197Z"/>
</mask>
<path fill-rule="evenodd" clip-rule="evenodd" d="M87.664 157.197C85.7917 154.081 82.8452 154.132 81.0827 157.312C79.3203 160.492 79.4094 165.596 81.2817 168.712C83.1541 171.828 86.1006 171.777 87.863 168.597C89.6254 165.417 89.5364 160.313 87.664 157.197Z" fill="url(#paint3_linear_1046_741)"/>
<path d="M81.116 157.367C82.8611 154.219 85.7788 154.168 87.6328 157.254L87.6953 157.141C85.8046 153.994 82.8292 154.046 81.0495 157.257L81.116 157.367ZM81.313 168.656C79.459 165.57 79.3708 160.516 81.116 157.367L81.0495 157.257C79.2698 160.468 79.3598 165.622 81.2505 168.769L81.313 168.656ZM87.8298 168.542C86.0847 171.691 83.167 171.742 81.313 168.656L81.2505 168.769C83.1411 171.915 86.1165 171.863 87.8962 168.653L87.8298 168.542ZM87.6328 157.254C89.4867 160.339 89.575 165.393 87.8298 168.542L87.8962 168.653C89.6759 165.442 89.586 160.288 87.6953 157.141L87.6328 157.254Z" fill="black" mask="url(#path-90-inside-9_1046_741)"/>
<mask id="path-92-inside-10_1046_741" fill="white">
<path fill-rule="evenodd" clip-rule="evenodd" d="M86.6401 159.041C85.367 156.922 83.3633 156.957 82.1649 159.119C80.9664 161.281 81.027 164.752 82.3002 166.871C83.5734 168.99 85.577 168.955 86.7755 166.793C87.9739 164.631 87.9133 161.16 86.6401 159.041Z"/>
</mask>
<path fill-rule="evenodd" clip-rule="evenodd" d="M86.6401 159.041C85.367 156.922 83.3633 156.957 82.1649 159.119C80.9664 161.281 81.027 164.752 82.3002 166.871C83.5734 168.99 85.577 168.955 86.7755 166.793C87.9739 164.631 87.9133 161.16 86.6401 159.041Z" fill="#F2F2F2"/>
<path d="M82.1874 159.157C83.3742 157.016 85.3582 156.981 86.6189 159.079L86.6614 159.003C85.3757 156.863 83.3525 156.898 82.1423 159.082L82.1874 159.157ZM82.3214 166.833C81.0607 164.735 81.0007 161.298 82.1874 159.157L82.1423 159.082C80.9321 161.265 80.9933 164.77 82.2789 166.91L82.3214 166.833ZM86.7529 166.756C85.5662 168.897 83.5821 168.931 82.3214 166.833L82.2789 166.91C83.5646 169.05 85.5878 169.014 86.798 166.831L86.7529 166.756ZM86.6189 159.079C87.8796 161.178 87.9396 164.614 86.7529 166.756L86.798 166.831C88.0082 164.647 87.9471 161.143 86.6614 159.003L86.6189 159.079Z" fill="black" mask="url(#path-92-inside-10_1046_741)"/>
<g clip-path="url(#clip1_1046_741)">
<path d="M83.8479 159.299L84.7476 159.249C84.7671 159.248 84.7868 159.254 84.8053 159.267C84.8238 159.279 84.8409 159.298 84.8553 159.322L87.0054 162.901C87.0157 162.918 87.023 162.94 87.0264 162.963C87.0298 162.987 87.0292 163.011 87.0247 163.034C87.0201 163.056 87.0119 163.075 87.0008 163.089C86.9898 163.103 86.9766 163.111 86.9627 163.112L86.0627 163.161C86.0432 163.162 86.0236 163.156 86.0051 163.144C85.9866 163.131 85.9696 163.112 85.9552 163.088L83.8052 159.51C83.7949 159.493 83.7877 159.471 83.7842 159.448C83.7808 159.424 83.7814 159.399 83.7859 159.377C83.7905 159.355 83.7988 159.335 83.8098 159.322C83.8208 159.308 83.834 159.3 83.8479 159.299ZM83.4032 161.675C83.4034 161.709 83.4076 161.742 83.4156 161.774C83.4236 161.806 83.4352 161.834 83.4496 161.858L85.5997 165.437C85.61 165.454 85.6228 165.466 85.6365 165.471C85.6503 165.476 85.6644 165.474 85.6771 165.465C85.6898 165.456 85.7006 165.441 85.7081 165.422C85.7156 165.402 85.7196 165.379 85.7195 165.355L85.7116 163.794C85.7115 163.761 85.7073 163.727 85.6993 163.695C85.6914 163.664 85.6799 163.635 85.6655 163.611L83.5155 160.033C83.5052 160.016 83.4924 160.004 83.4787 159.999C83.465 159.994 83.4509 159.996 83.4381 160.005C83.4254 160.013 83.4146 160.028 83.4071 160.048C83.3996 160.068 83.3956 160.091 83.3957 160.115L83.4032 161.675ZM85.31 165.96L83.1599 162.381C83.1454 162.357 83.1284 162.338 83.1099 162.326C83.0913 162.313 83.0717 162.307 83.0521 162.308L82.1525 162.358C82.1386 162.359 82.1254 162.367 82.1144 162.38C82.1034 162.394 82.0951 162.414 82.0905 162.436C82.086 162.458 82.0854 162.483 82.0888 162.506C82.0922 162.53 82.0995 162.552 82.1098 162.569L84.2598 166.147C84.2742 166.171 84.2912 166.19 84.3097 166.202C84.3282 166.215 84.3478 166.221 84.3673 166.22L85.2672 166.17C85.281 166.17 85.2943 166.162 85.3053 166.148C85.3163 166.134 85.3246 166.115 85.3291 166.093C85.3337 166.07 85.3343 166.046 85.3309 166.022C85.3275 165.999 85.3202 165.977 85.31 165.96Z" fill="black"/>
</g>
<path d="M164.96 229.535L165.551 230.03L165.303 230.325L164.713 229.83L164.96 229.535Z" fill="black"/>
<mask id="path-96-inside-11_1046_741" fill="white">
<path fill-rule="evenodd" clip-rule="evenodd" d="M164.957 229.535C165.446 229.945 165.51 230.675 165.1 231.164L164.854 231.456L166.628 232.945C166.954 233.219 166.997 233.705 166.723 234.031C166.45 234.357 165.963 234.4 165.637 234.126L163.863 232.637L162.872 233.819L164.645 235.307C164.972 235.581 165.014 236.067 164.74 236.393C164.467 236.719 163.981 236.762 163.655 236.488L161.881 235L152.922 245.677C154.363 247.364 154.418 249.893 152.944 251.649C151.302 253.606 148.385 253.861 146.429 252.219C144.472 250.578 144.217 247.661 145.859 245.704C147.152 244.162 149.238 243.677 151.022 244.344L163.328 229.677C163.739 229.188 164.468 229.124 164.957 229.535ZM147.994 250.354C148.92 251.132 150.301 251.011 151.079 250.084C151.856 249.158 151.735 247.777 150.809 246.999C149.883 246.222 148.501 246.343 147.724 247.269C146.947 248.196 147.068 249.577 147.994 250.354Z"/>
</mask>
<path fill-rule="evenodd" clip-rule="evenodd" d="M164.957 229.535C165.446 229.945 165.51 230.675 165.1 231.164L164.854 231.456L166.628 232.945C166.954 233.219 166.997 233.705 166.723 234.031C166.45 234.357 165.963 234.4 165.637 234.126L163.863 232.637L162.872 233.819L164.645 235.307C164.972 235.581 165.014 236.067 164.74 236.393C164.467 236.719 163.981 236.762 163.655 236.488L161.881 235L152.922 245.677C154.363 247.364 154.418 249.893 152.944 251.649C151.302 253.606 148.385 253.861 146.429 252.219C144.472 250.578 144.217 247.661 145.859 245.704C147.152 244.162 149.238 243.677 151.022 244.344L163.328 229.677C163.739 229.188 164.468 229.124 164.957 229.535ZM147.994 250.354C148.92 251.132 150.301 251.011 151.079 250.084C151.856 249.158 151.735 247.777 150.809 246.999C149.883 246.222 148.501 246.343 147.724 247.269C146.947 248.196 147.068 249.577 147.994 250.354Z" fill="black"/>
<path d="M164.854 231.456L164.804 231.516L164.745 231.466L164.795 231.407L164.854 231.456ZM166.628 232.945L166.579 233.004L166.628 232.945ZM165.637 234.126L165.687 234.067L165.637 234.126ZM163.863 232.637L163.804 232.588L163.854 232.529L163.913 232.578L163.863 232.637ZM162.872 233.819L162.822 233.878L162.763 233.828L162.813 233.769L162.872 233.819ZM164.645 235.307L164.596 235.366L164.645 235.307ZM161.881 235L161.822 234.95L161.871 234.891L161.93 234.941L161.881 235ZM152.922 245.677L152.863 245.727L152.821 245.677L152.863 245.627L152.922 245.677ZM151.022 244.344L151.081 244.394L151.046 244.435L150.995 244.416L151.022 244.344ZM165.041 231.114C165.424 230.658 165.364 229.977 164.908 229.594L165.007 229.476C165.528 229.914 165.596 230.692 165.159 231.213L165.041 231.114ZM164.795 231.407L165.041 231.114L165.159 231.213L164.913 231.506L164.795 231.407ZM166.579 233.004L164.804 231.516L164.903 231.397L166.678 232.886L166.579 233.004ZM166.664 233.982C166.911 233.688 166.872 233.251 166.579 233.004L166.678 232.886C167.037 233.187 167.083 233.722 166.782 234.081L166.664 233.982ZM165.687 234.067C165.98 234.313 166.418 234.275 166.664 233.982L166.782 234.081C166.481 234.439 165.947 234.486 165.588 234.185L165.687 234.067ZM163.913 232.578L165.687 234.067L165.588 234.185L163.814 232.696L163.913 232.578ZM162.813 233.769L163.804 232.588L163.922 232.687L162.931 233.868L162.813 233.769ZM164.596 235.366L162.822 233.878L162.921 233.76L164.695 235.248L164.596 235.366ZM164.681 236.343C164.928 236.05 164.889 235.612 164.596 235.366L164.695 235.248C165.054 235.549 165.101 236.084 164.8 236.442L164.681 236.343ZM163.704 236.429C163.998 236.675 164.435 236.637 164.681 236.343L164.8 236.442C164.499 236.801 163.964 236.848 163.605 236.547L163.704 236.429ZM161.93 234.941L163.704 236.429L163.605 236.547L161.831 235.059L161.93 234.941ZM152.863 245.627L161.822 234.95L161.94 235.049L152.981 245.726L152.863 245.627ZM152.885 251.6C154.334 249.873 154.28 247.386 152.863 245.727L152.98 245.627C154.446 247.342 154.501 249.914 153.003 251.699L152.885 251.6ZM146.478 252.16C148.402 253.775 151.271 253.524 152.885 251.6L153.003 251.699C151.334 253.688 148.368 253.948 146.379 252.279L146.478 252.16ZM145.918 245.754C144.303 247.678 144.554 250.546 146.478 252.16L146.379 252.279C144.39 250.609 144.131 247.644 145.8 245.655L145.918 245.754ZM150.995 244.416C149.241 243.76 147.19 244.238 145.918 245.754L145.8 245.655C147.115 244.087 149.235 243.594 151.049 244.272L150.995 244.416ZM163.387 229.727L151.081 244.394L150.963 244.294L163.269 229.628L163.387 229.727ZM164.908 229.594C164.451 229.211 163.77 229.27 163.387 229.727L163.269 229.628C163.707 229.106 164.485 229.038 165.007 229.476L164.908 229.594ZM151.138 250.134C150.333 251.093 148.903 251.218 147.944 250.413L148.043 250.295C148.937 251.045 150.27 250.929 151.02 250.035L151.138 250.134ZM150.858 246.94C151.817 247.745 151.943 249.175 151.138 250.134L151.02 250.035C151.77 249.141 151.653 247.808 150.759 247.059L150.858 246.94ZM147.665 247.22C148.47 246.261 149.899 246.136 150.858 246.94L150.759 247.059C149.866 246.309 148.533 246.425 147.783 247.319L147.665 247.22ZM147.944 250.413C146.985 249.609 146.86 248.179 147.665 247.22L147.783 247.319C147.033 248.213 147.15 249.545 148.043 250.295L147.944 250.413Z" fill="black" mask="url(#path-96-inside-11_1046_741)"/>
<mask id="path-98-inside-12_1046_741" fill="white">
<path fill-rule="evenodd" clip-rule="evenodd" d="M165.551 230.03C166.04 230.441 166.104 231.17 165.693 231.659L165.448 231.952L167.222 233.441C167.548 233.714 167.591 234.2 167.317 234.527C167.043 234.853 166.557 234.895 166.231 234.622L164.457 233.133L163.466 234.314L165.239 235.802C165.565 236.076 165.608 236.562 165.334 236.888C165.061 237.214 164.574 237.257 164.248 236.983L162.475 235.495L153.516 246.172C154.957 247.859 155.011 250.389 153.538 252.145C151.896 254.101 148.979 254.357 147.023 252.715C145.066 251.073 144.811 248.156 146.453 246.2C147.746 244.658 149.832 244.172 151.615 244.839L163.922 230.173C164.332 229.684 165.062 229.62 165.551 230.03ZM148.588 250.85C149.514 251.627 150.895 251.506 151.673 250.58C152.45 249.653 152.329 248.272 151.403 247.495C150.476 246.717 149.095 246.838 148.318 247.765C147.54 248.691 147.661 250.072 148.588 250.85Z"/>
</mask>
<path fill-rule="evenodd" clip-rule="evenodd" d="M165.551 230.03C166.04 230.441 166.104 231.17 165.693 231.659L165.448 231.952L167.222 233.441C167.548 233.714 167.591 234.2 167.317 234.527C167.043 234.853 166.557 234.895 166.231 234.622L164.457 233.133L163.466 234.314L165.239 235.802C165.565 236.076 165.608 236.562 165.334 236.888C165.061 237.214 164.574 237.257 164.248 236.983L162.475 235.495L153.516 246.172C154.957 247.859 155.011 250.389 153.538 252.145C151.896 254.101 148.979 254.357 147.023 252.715C145.066 251.073 144.811 248.156 146.453 246.2C147.746 244.658 149.832 244.172 151.615 244.839L163.922 230.173C164.332 229.684 165.062 229.62 165.551 230.03ZM148.588 250.85C149.514 251.627 150.895 251.506 151.673 250.58C152.45 249.653 152.329 248.272 151.403 247.495C150.476 246.717 149.095 246.838 148.318 247.765C147.54 248.691 147.661 250.072 148.588 250.85Z" fill="#7CC0FF"/>
<path d="M165.448 231.952L165.398 232.011L165.339 231.961L165.389 231.902L165.448 231.952ZM164.457 233.133L164.398 233.083L164.447 233.024L164.506 233.074L164.457 233.133ZM163.466 234.314L163.416 234.373L163.357 234.324L163.406 234.265L163.466 234.314ZM165.239 235.802L165.289 235.743L165.239 235.802ZM162.475 235.495L162.416 235.445L162.465 235.386L162.524 235.436L162.475 235.495ZM153.516 246.172L153.457 246.222L153.415 246.173L153.456 246.123L153.516 246.172ZM151.615 244.839L151.674 244.889L151.639 244.931L151.588 244.912L151.615 244.839ZM163.922 230.173L163.981 230.222L163.922 230.173ZM165.634 231.61C166.017 231.153 165.958 230.472 165.501 230.089L165.6 229.971C166.122 230.409 166.19 231.187 165.752 231.709L165.634 231.61ZM165.389 231.902L165.634 231.61L165.752 231.709L165.507 232.001L165.389 231.902ZM167.172 233.5L165.398 232.011L165.497 231.893L167.272 233.382L167.172 233.5ZM167.258 234.477C167.504 234.184 167.466 233.746 167.172 233.5L167.272 233.382C167.63 233.683 167.677 234.217 167.376 234.576L167.258 234.477ZM166.281 234.563C166.574 234.809 167.012 234.771 167.258 234.477L167.376 234.576C167.075 234.935 166.54 234.982 166.182 234.681L166.281 234.563ZM164.506 233.074L166.281 234.563L166.182 234.681L164.407 233.192L164.506 233.074ZM163.406 234.265L164.398 233.083L164.516 233.182L163.525 234.364L163.406 234.265ZM165.19 235.861L163.416 234.373L163.515 234.255L165.289 235.743L165.19 235.861ZM165.275 236.839C165.521 236.545 165.483 236.108 165.19 235.861L165.289 235.743C165.647 236.044 165.694 236.579 165.393 236.938L165.275 236.839ZM164.298 236.924C164.591 237.171 165.029 237.132 165.275 236.839L165.393 236.938C165.092 237.297 164.558 237.343 164.199 237.042L164.298 236.924ZM162.524 235.436L164.298 236.924L164.199 237.042L162.425 235.554L162.524 235.436ZM153.456 246.123L162.416 235.445L162.534 235.545L153.575 246.222L153.456 246.123ZM153.479 252.095C154.928 250.369 154.874 247.881 153.457 246.222L153.574 246.122C155.039 247.837 155.095 250.409 153.597 252.194L153.479 252.095ZM147.072 252.656C148.996 254.27 151.864 254.019 153.479 252.095L153.597 252.194C151.928 254.184 148.962 254.443 146.973 252.774L147.072 252.656ZM146.512 246.249C144.897 248.173 145.148 251.041 147.072 252.656L146.973 252.774C144.984 251.105 144.724 248.139 146.393 246.15L146.512 246.249ZM151.588 244.912C149.834 244.256 147.784 244.733 146.512 246.249L146.393 246.15C147.709 244.582 149.829 244.089 151.642 244.767L151.588 244.912ZM163.981 230.222L151.674 244.889L151.556 244.79L163.863 230.123L163.981 230.222ZM165.501 230.089C165.045 229.706 164.364 229.766 163.981 230.222L163.863 230.123C164.301 229.601 165.079 229.533 165.6 229.971L165.501 230.089ZM151.732 250.629C150.927 251.588 149.497 251.713 148.538 250.909L148.637 250.791C149.531 251.541 150.864 251.424 151.614 250.53L151.732 250.629ZM151.452 247.436C152.411 248.24 152.536 249.67 151.732 250.629L151.614 250.53C152.364 249.636 152.247 248.304 151.353 247.554L151.452 247.436ZM148.259 247.715C149.063 246.756 150.493 246.631 151.452 247.436L151.353 247.554C150.459 246.804 149.127 246.92 148.377 247.814L148.259 247.715ZM148.538 250.909C147.579 250.104 147.454 248.674 148.259 247.715L148.377 247.814C147.627 248.708 147.743 250.041 148.637 250.791L148.538 250.909Z" fill="black" mask="url(#path-98-inside-12_1046_741)"/>
<circle cx="59.7517" cy="271.024" r="3.84545" fill="#FF52C6"/>
<circle cx="333.549" cy="197.191" r="3.84545" fill="#FF52C6"/>
<circle cx="44.3698" cy="235.645" r="2.30727" fill="#FF52C6"/>
<g filter="url(#filter0_d_1046_741)">
<path d="M173.168 130.344L177.51 129.529L180.286 134.655L175.726 135.105L173.168 130.344Z" fill="url(#paint4_linear_1046_741)"/>
<path d="M176.531 127.669L180.785 126.65L177.508 129.529L173.166 130.343L176.531 127.669Z" fill="url(#paint5_linear_1046_741)"/>
<path d="M177.513 129.53L180.79 126.65L183.349 131.411L180.29 134.655L177.513 129.53Z" fill="url(#paint6_linear_1046_741)"/>
</g>
<g filter="url(#filter1_d_1046_741)">
<path d="M173.957 137.141L177.359 139.958L175.194 145.371L171.932 142.152L173.957 137.141Z" fill="url(#paint7_linear_1046_741)"/>
<path d="M178.168 138.017L181.672 140.637L177.362 139.959L173.96 137.141L178.168 138.017Z" fill="url(#paint8_linear_1046_741)"/>
<path d="M177.361 139.959L181.671 140.638L179.646 145.649L175.196 145.372L177.361 139.959Z" fill="url(#paint9_linear_1046_741)"/>
</g>
<defs>
<filter id="filter0_d_1046_741" x="171.411" y="126.65" width="13.6944" height="11.9697" filterUnits="userSpaceOnUse" color-interpolation-filters="sRGB">
<feFlood flood-opacity="0" result="BackgroundImageFix"/>
<feColorMatrix in="SourceAlpha" type="matrix" values="0 0 0 0 0 0 0 0 0 0 0 0 0 0 0 0 0 0 127 0" result="hardAlpha"/>
<feOffset dy="1.75733"/>
<feGaussianBlur stdDeviation="0.878666"/>
<feComposite in2="hardAlpha" operator="out"/>
<feColorMatrix type="matrix" values="0 0 0 0 1 0 0 0 0 0.321569 0 0 0 0 0.776471 0 0 0 0.25 0"/>
<feBlend mode="normal" in2="BackgroundImageFix" result="effect1_dropShadow_1046_741"/>
<feBlend mode="normal" in="SourceGraphic" in2="effect1_dropShadow_1046_741" result="shape"/>
</filter>
<filter id="filter1_d_1046_741" x="170.176" y="137.141" width="13.2529" height="12.023" filterUnits="userSpaceOnUse" color-interpolation-filters="sRGB">
<feFlood flood-opacity="0" result="BackgroundImageFix"/>
<feColorMatrix in="SourceAlpha" type="matrix" values="0 0 0 0 0 0 0 0 0 0 0 0 0 0 0 0 0 0 127 0" result="hardAlpha"/>
<feOffset dy="1.75733"/>
<feGaussianBlur stdDeviation="0.878666"/>
<feComposite in2="hardAlpha" operator="out"/>
<feColorMatrix type="matrix" values="0 0 0 0 1 0 0 0 0 0.321569 0 0 0 0 0.776471 0 0 0 0.25 0"/>
<feBlend mode="normal" in2="BackgroundImageFix" result="effect1_dropShadow_1046_741"/>
<feBlend mode="normal" in="SourceGraphic" in2="effect1_dropShadow_1046_741" result="shape"/>
</filter>
<linearGradient id="paint0_linear_1046_741" x1="284.728" y1="157.148" x2="268.663" y2="154.798" gradientUnits="userSpaceOnUse">
<stop stop-color="#7CC0FF"/>
<stop offset="1" stop-color="#7A65FD"/>
</linearGradient>
<linearGradient id="paint1_linear_1046_741" x1="268.353" y1="143.652" x2="265.3" y2="154.077" gradientUnits="userSpaceOnUse">
<stop stop-color="#7CC0FF"/>
<stop offset="1" stop-color="#7A65FD"/>
</linearGradient>
<linearGradient id="paint2_linear_1046_741" x1="84.3285" y1="175.054" x2="81.1863" y2="164.095" gradientUnits="userSpaceOnUse">
<stop stop-color="#7CC0FF"/>
<stop offset="1" stop-color="#7A65FD"/>
</linearGradient>
<linearGradient id="paint3_linear_1046_741" x1="81.2817" y1="168.712" x2="91.0546" y2="162.84" gradientUnits="userSpaceOnUse">
<stop stop-color="#7CC0FF"/>
<stop offset="1" stop-color="#7A65FD"/>
</linearGradient>
<linearGradient id="paint4_linear_1046_741" x1="175.031" y1="129.343" x2="178.423" y2="135.656" gradientUnits="userSpaceOnUse">
<stop stop-color="#8DC1B8"/>
<stop offset="1" stop-color="#7A65FD" stop-opacity="0.53"/>
</linearGradient>
<linearGradient id="paint5_linear_1046_741" x1="176.531" y1="127.669" x2="177.56" y2="129.583" gradientUnits="userSpaceOnUse">
<stop stop-color="#FF52C6"/>
<stop offset="1" stop-color="#FFEDF9" stop-opacity="0.53"/>
</linearGradient>
<linearGradient id="paint6_linear_1046_741" x1="178.927" y1="127.651" x2="182.153" y2="133.654" gradientUnits="userSpaceOnUse">
<stop stop-color="#FEDCB2"/>
<stop offset="1" stop-color="#7A65FD" stop-opacity="0.53"/>
</linearGradient>
<linearGradient id="paint7_linear_1046_741" x1="175.918" y1="137.933" x2="173.233" y2="144.579" gradientUnits="userSpaceOnUse">
<stop stop-color="#8DC1B8"/>
<stop offset="1" stop-color="#7A65FD" stop-opacity="0.53"/>
</linearGradient>
<linearGradient id="paint8_linear_1046_741" x1="178.168" y1="138.017" x2="177.354" y2="140.033" gradientUnits="userSpaceOnUse">
<stop stop-color="#FF52C6"/>
<stop offset="1" stop-color="#FFEDF9" stop-opacity="0.53"/>
</linearGradient>
<linearGradient id="paint9_linear_1046_741" x1="179.71" y1="139.846" x2="177.157" y2="146.164" gradientUnits="userSpaceOnUse">
<stop stop-color="#FEDCB2"/>
<stop offset="1" stop-color="#7A65FD" stop-opacity="0.53"/>
</linearGradient>
<clipPath id="clip0_1046_741">
<rect width="5.33499" height="4.64831" fill="white" transform="matrix(-0.961272 0.275601 -0.719366 -0.694631 83.6406 171.219)"/>
</clipPath>
<clipPath id="clip1_1046_741">
<rect width="5.33499" height="4.64831" fill="white" transform="matrix(-0.515006 -0.857187 0.484777 -0.874638 84.8047 167.054)"/>
</clipPath>
</defs>
</svg>
