<svg width="478" height="476" viewBox="0 0 478 476" fill="none" xmlns="http://www.w3.org/2000/svg">
<circle cx="172" cy="172" r="171.109" stroke="#FF52C6" stroke-width="1.78238" stroke-dasharray="14.26 14.26"/>
<circle cx="306" cy="282" r="171.109" stroke="#FF52C6" stroke-width="1.78238" stroke-dasharray="14.26 14.26"/>
<path d="M181.038 159.553L244.551 122.702L386.799 204.821L323.285 241.673L181.038 159.553Z" fill="white" stroke="black" stroke-width="0.307703"/>
<rect x="-0.13323" y="0.0769206" width="192.792" height="163.311" transform="matrix(3.77088e-05 1 -0.866007 -0.500033 323.238 241.965)" fill="#ADC4CB" stroke="black" stroke-width="0.307703"/>
<path d="M386.906 397.739L323.397 434.592L323.403 241.883L386.912 205.029L386.906 397.739Z" fill="black" stroke="#FF52C6" stroke-width="0.31"/>
<rect x="0.216492" y="0.124992" width="2.52391" height="10.4617" rx="1.26196" transform="matrix(0.866007 -0.500033 -3.77386e-05 1 344.506 276.222)" stroke="#FF52C6" stroke-width="0.5"/>
<rect x="0.216492" y="0.124992" width="2.52391" height="10.4617" rx="1.26196" transform="matrix(0.866007 -0.500033 -3.7724e-05 1 358.256 268.283)" stroke="#FF52C6" stroke-width="0.5"/>
<rect width="3.02391" height="10.9617" rx="1.51196" transform="matrix(0.866007 -0.500033 -3.7724e-05 1 344.477 289.344)" fill="#FF52C6"/>
<rect width="3.02391" height="10.9617" rx="1.51196" transform="matrix(0.866007 -0.500033 -3.7724e-05 1 358.223 281.405)" fill="#FF52C6"/>
<rect x="0.216492" y="0.124992" width="2.52391" height="10.4617" rx="1.26196" transform="matrix(0.866007 -0.500033 -3.7724e-05 1 349.088 273.576)" stroke="#FF52C6" stroke-width="0.5"/>
<rect width="3.02391" height="10.9617" rx="1.51196" transform="matrix(0.866007 -0.500033 -3.7724e-05 1 362.809 265.529)" fill="#FF52C6"/>
<rect width="3.02391" height="10.9617" rx="1.51196" transform="matrix(0.866007 -0.500033 -3.7724e-05 1 349.059 286.697)" fill="#FF52C6"/>
<rect x="0.216492" y="0.124992" width="2.52391" height="10.4617" rx="1.26196" transform="matrix(0.866007 -0.500033 -3.7724e-05 1 362.834 278.868)" stroke="#FF52C6" stroke-width="0.5"/>
<rect width="3.02391" height="10.9617" rx="1.51196" transform="matrix(0.866007 -0.500033 -3.7724e-05 1 353.645 270.821)" fill="#FF52C6"/>
<rect x="0.216492" y="0.124992" width="2.52391" height="10.4617" rx="1.26196" transform="matrix(0.866007 -0.500033 -3.7724e-05 1 367.42 262.992)" stroke="#FF52C6" stroke-width="0.5"/>
<rect x="0.216492" y="0.124992" width="2.52391" height="10.4617" rx="1.26196" transform="matrix(0.866007 -0.500033 -3.7724e-05 1 353.67 284.159)" stroke="#FF52C6" stroke-width="0.5"/>
<rect width="3.02391" height="10.9617" rx="1.51196" transform="matrix(0.866007 -0.500033 -3.7724e-05 1 367.391 276.112)" fill="#FF52C6"/>
<rect width="40.0075" height="40.0075" rx="4" transform="matrix(0.866007 -0.500033 -3.77386e-05 1 340.324 368.006)" fill="white"/>
<rect x="0.0865969" y="0.0499967" width="14.4966" height="5.51535" rx="2.75768" transform="matrix(0.866007 -0.500033 -3.77127e-05 1 344.578 371.315)" fill="#FF52C6" stroke="black" stroke-width="0.2"/>
<rect width="8.16479" height="2.44944" rx="1.22472" transform="matrix(0.866007 -0.500033 -3.77126e-05 1 347.395 371.272)" fill="black"/>
<rect x="0.0865969" y="0.0499967" width="14.4966" height="5.51535" rx="2.75768" transform="matrix(0.866007 -0.500033 -3.77127e-05 1 359.426 374.173)" fill="#FF52C6" stroke="black" stroke-width="0.2"/>
<rect width="8.16479" height="2.44944" rx="1.22472" transform="matrix(0.866007 -0.500033 -3.77126e-05 1 362.242 374.129)" fill="black"/>
<rect x="0.0865969" y="0.0499967" width="14.4966" height="5.51535" rx="2.75768" transform="matrix(0.866007 -0.500033 -3.77127e-05 1 344.578 382.745)" fill="#FF52C6" stroke="black" stroke-width="0.2"/>
<rect width="8.16479" height="2.44944" rx="1.22472" transform="matrix(0.866007 -0.500033 -3.77126e-05 1 347.395 382.702)" fill="black"/>
<rect x="0.0865969" y="0.0499967" width="14.4966" height="5.51535" rx="2.75768" transform="matrix(0.866007 -0.500033 -3.77127e-05 1 344.578 394.178)" fill="#FF52C6" stroke="black" stroke-width="0.2"/>
<rect width="8.16479" height="2.44944" rx="1.22472" transform="matrix(0.866007 -0.500033 -3.77126e-05 1 347.395 394.135)" fill="black"/>
<rect x="0.0865969" y="0.0499967" width="12.8637" height="8.78127" rx="1.9" transform="matrix(0.866007 -0.500033 -3.77127e-05 1 360.133 362.335)" fill="#D9D9D9" stroke="black" stroke-width="0.2"/>
<rect x="0.0270615" y="0.015624" width="1.57046" height="4.01989" rx="0.59375" transform="matrix(0.866007 -0.500033 -3.77126e-05 1 361.539 363.938)" fill="black" stroke="black" stroke-width="0.0625"/>
<rect x="0.0270615" y="0.015624" width="1.57046" height="4.01989" rx="0.59375" transform="matrix(0.866007 -0.500033 -3.77126e-05 1 365.074 361.897)" fill="black" stroke="black" stroke-width="0.0625"/>
<rect x="0.0270615" y="0.015624" width="1.57046" height="4.01989" rx="0.59375" transform="matrix(0.866007 -0.500033 -3.77126e-05 1 368.609 359.856)" fill="black" stroke="black" stroke-width="0.0625"/>
<rect x="0.0865969" y="0.0499967" width="12.8637" height="8.78127" rx="1.9" transform="matrix(0.866007 -0.500033 -3.77127e-05 1 360.133 383.561)" fill="#D9D9D9" stroke="black" stroke-width="0.2"/>
<rect x="0.0270615" y="0.015624" width="1.57046" height="4.01989" rx="0.59375" transform="matrix(0.866007 -0.500033 -3.77126e-05 1 361.539 385.164)" fill="black" stroke="black" stroke-width="0.0625"/>
<rect x="0.0270615" y="0.015624" width="1.57046" height="4.01989" rx="0.59375" transform="matrix(0.866007 -0.500033 -3.77126e-05 1 365.074 383.123)" fill="black" stroke="black" stroke-width="0.0625"/>
<rect x="0.0270615" y="0.015624" width="1.57046" height="4.01989" rx="0.59375" transform="matrix(0.866007 -0.500033 -3.77126e-05 1 368.609 381.082)" fill="black" stroke="black" stroke-width="0.0625"/>
<rect x="0.173209" y="0.300007" width="129.42" height="33.8921" rx="5.49234" transform="matrix(0.866007 0.500033 3.76532e-05 1 194.586 202.367)" fill="white" stroke="black" stroke-width="0.4"/>
<rect x="0.173209" y="0.300007" width="67.3677" height="5.31535" rx="2.65768" transform="matrix(0.866007 0.500033 3.76734e-05 1 205.898 225.23)" fill="white" stroke="black" stroke-width="0.4"/>
<rect x="0.216492" y="-0.124992" width="18.279" height="5.21535" rx="2.60768" transform="matrix(-3.76734e-05 -1 0.866007 0.500033 274.079 276.911)" fill="#FF52C6" stroke="black" stroke-width="0.5"/>
<rect x="0.216492" y="-0.124992" width="18.279" height="5.21535" rx="2.60768" transform="matrix(-3.76734e-05 -1 0.866007 0.500033 282.567 281.813)" fill="#7CC0FF" stroke="black" stroke-width="0.5"/>
<rect x="0.216492" y="-0.124992" width="18.279" height="5.21535" rx="2.60768" transform="matrix(-3.76734e-05 -1 0.866007 0.500033 291.051 286.711)" fill="white" stroke="black" stroke-width="0.5"/>
<rect x="0.173209" y="0.300007" width="129.42" height="33.8921" rx="5.49234" transform="matrix(0.866007 0.500033 3.76633e-05 1 194.59 250.539)" fill="white" stroke="black" stroke-width="0.4"/>
<rect x="0.173209" y="0.300007" width="67.3677" height="5.31535" rx="2.65768" transform="matrix(0.866007 0.500033 3.76835e-05 1 205.902 273.402)" fill="white" stroke="black" stroke-width="0.4"/>
<rect x="0.216492" y="-0.124992" width="18.279" height="5.21535" rx="2.60768" transform="matrix(-3.76835e-05 -1 0.866007 0.500033 274.083 325.082)" fill="#FF52C6" stroke="black" stroke-width="0.5"/>
<rect x="0.216492" y="-0.124992" width="18.279" height="5.21535" rx="2.60768" transform="matrix(-3.76835e-05 -1 0.866007 0.500033 282.571 329.984)" fill="white" stroke="black" stroke-width="0.5"/>
<rect x="0.216492" y="-0.124992" width="18.279" height="5.21535" rx="2.60768" transform="matrix(-3.76835e-05 -1 0.866007 0.500033 291.055 334.883)" fill="white" stroke="black" stroke-width="0.5"/>
<rect x="0.173209" y="0.300007" width="129.42" height="33.8921" rx="5.49234" transform="matrix(0.866007 0.500033 3.76633e-05 1 194.59 298.711)" fill="white" stroke="black" stroke-width="0.4"/>
<rect x="0.173209" y="0.300007" width="67.3677" height="5.31535" rx="2.65768" transform="matrix(0.866007 0.500033 3.76835e-05 1 205.902 321.574)" fill="white" stroke="black" stroke-width="0.4"/>
<rect x="0.216492" y="-0.124992" width="18.279" height="5.21535" rx="2.60768" transform="matrix(-3.76835e-05 -1 0.866007 0.500033 274.083 373.254)" fill="#7A65FD" stroke="black" stroke-width="0.5"/>
<rect x="0.216492" y="-0.124992" width="18.279" height="5.21535" rx="2.60768" transform="matrix(-3.76835e-05 -1 0.866007 0.500033 282.571 378.156)" fill="#7A65FD" stroke="black" stroke-width="0.5"/>
<rect x="0.216492" y="-0.124992" width="18.279" height="5.21535" rx="2.60768" transform="matrix(-3.76835e-05 -1 0.866007 0.500033 291.055 383.055)" fill="white" stroke="black" stroke-width="0.5"/>
<rect y="0.199987" width="43.6899" height="43.6899" rx="5.8" transform="matrix(0.866044 0.499967 -0.866044 0.499967 254.357 140.1)" fill="#D9D9D9" stroke="black" stroke-width="0.4"/>
<circle cx="1.22472" cy="1.22472" r="1.02472" transform="matrix(0.866044 0.499967 -0.866044 0.499967 254.184 143.266)" fill="#D9D9D9" stroke="black" stroke-width="0.4"/>
<circle cx="1.22472" cy="1.22472" r="1.02472" transform="matrix(0.866044 0.499967 -0.866044 0.499967 285.297 161.227)" fill="#D9D9D9" stroke="black" stroke-width="0.4"/>
<circle cx="1.22472" cy="1.22472" r="1.02472" transform="matrix(0.866044 0.499967 -0.866044 0.499967 254.891 178.78)" fill="#D9D9D9" stroke="black" stroke-width="0.4"/>
<circle cx="1.22472" cy="1.22472" r="1.02472" transform="matrix(0.866044 0.499967 -0.866044 0.499967 223.777 160.819)" fill="#D9D9D9" stroke="black" stroke-width="0.4"/>
<circle cx="15.5131" cy="15.5131" r="15.5131" transform="matrix(0.866044 0.499967 -0.866044 0.499967 254.184 146.531)" fill="black"/>
<circle cx="3.12323" cy="3.12323" r="3.12323" transform="matrix(0.866044 0.499967 -0.866044 0.499967 254.801 158.951)" fill="#FF52C6"/>
<path d="M244.358 156.295C242.045 157.744 240.03 159.856 241.626 161.089C242.544 161.799 243.604 161.848 245.115 162.135C246.625 162.422 249.362 162.557 249.362 162.557C249.362 162.557 249.01 161.51 249.984 160.48C251.01 159.394 253.365 158.996 253.365 158.996C253.365 158.996 256.188 154.586 254.068 153.906C252.919 153.537 247.73 154.182 244.358 156.295Z" fill="#FF52C6"/>
<path d="M268.683 159.745C267.665 157.864 265.505 155.801 262.857 155.982C261.333 156.086 260.729 156.592 259.543 157.204C258.358 157.816 256.788 159.116 256.788 159.116C256.788 159.116 258.533 159.463 259.592 160.465C260.708 161.521 260.127 162.898 260.127 162.898C260.127 162.898 265.33 166.514 267.412 165.794C268.539 165.404 270.167 162.488 268.683 159.745Z" fill="#FF52C6"/>
<path d="M251.198 170.248C254.529 170.679 258.703 170.631 259.755 169.217C260.361 168.402 259.905 167.848 259.58 166.949C259.255 166.051 258.089 164.615 258.089 164.615C258.089 164.615 256.696 165.314 254.663 165.342C252.521 165.372 250.747 164.394 250.747 164.394C250.747 164.394 242.719 165.187 242.759 166.587C242.78 167.346 246.342 169.618 251.198 170.248Z" fill="#FF52C6"/>
<rect y="0.199987" width="43.6899" height="43.6899" rx="5.8" transform="matrix(0.866044 0.499967 -0.866044 0.499967 319.357 177.1)" fill="#D9D9D9" stroke="black" stroke-width="0.4"/>
<circle cx="1.22472" cy="1.22472" r="1.02472" transform="matrix(0.866044 0.499967 -0.866044 0.499967 319.184 180.266)" fill="#D9D9D9" stroke="black" stroke-width="0.4"/>
<circle cx="1.22472" cy="1.22472" r="1.02472" transform="matrix(0.866044 0.499967 -0.866044 0.499967 350.297 198.227)" fill="#D9D9D9" stroke="black" stroke-width="0.4"/>
<circle cx="1.22472" cy="1.22472" r="1.02472" transform="matrix(0.866044 0.499967 -0.866044 0.499967 319.891 215.78)" fill="#D9D9D9" stroke="black" stroke-width="0.4"/>
<circle cx="1.22472" cy="1.22472" r="1.02472" transform="matrix(0.866044 0.499967 -0.866044 0.499967 288.777 197.819)" fill="#D9D9D9" stroke="black" stroke-width="0.4"/>
<circle cx="15.5131" cy="15.5131" r="15.5131" transform="matrix(0.866044 0.499967 -0.866044 0.499967 319.184 183.531)" fill="black"/>
<circle cx="3.12323" cy="3.12323" r="3.12323" transform="matrix(0.866044 0.499967 -0.866044 0.499967 319.801 195.951)" fill="#FF52C6"/>
<path d="M309.358 193.295C307.045 194.744 305.03 196.856 306.626 198.089C307.544 198.799 308.604 198.848 310.115 199.135C311.625 199.422 314.362 199.557 314.362 199.557C314.362 199.557 314.01 198.51 314.984 197.48C316.01 196.394 318.365 195.996 318.365 195.996C318.365 195.996 321.188 191.586 319.068 190.906C317.919 190.537 312.73 191.182 309.358 193.295Z" fill="#FF52C6"/>
<path d="M333.683 196.745C332.665 194.864 330.505 192.801 327.857 192.982C326.333 193.086 325.729 193.592 324.543 194.204C323.358 194.816 321.788 196.116 321.788 196.116C321.788 196.116 323.533 196.463 324.592 197.465C325.708 198.521 325.127 199.898 325.127 199.898C325.127 199.898 330.33 203.514 332.412 202.794C333.539 202.404 335.167 199.488 333.683 196.745Z" fill="#FF52C6"/>
<path d="M316.198 207.248C319.529 207.679 323.703 207.631 324.755 206.217C325.361 205.402 324.905 204.848 324.58 203.949C324.255 203.051 323.089 201.615 323.089 201.615C323.089 201.615 321.696 202.314 319.663 202.342C317.521 202.372 315.747 201.394 315.747 201.394C315.747 201.394 307.719 202.187 307.759 203.587C307.78 204.346 311.342 206.618 316.198 207.248Z" fill="#FF52C6"/>
<path d="M173.82 261.294L143.601 243.761L75.9235 282.832L106.142 300.365L173.82 261.294Z" fill="white" stroke="black" stroke-width="0.146398"/>
<rect x="0.0633878" y="0.036597" width="91.7256" height="77.6994" transform="matrix(-3.77088e-05 1 0.866007 -0.500033 106.165 300.377)" fill="#ADC4CB" stroke="black" stroke-width="0.146398"/>
<path d="M75.9384 374.577L106.014 392.029L106.011 300.505L75.9355 283.053L75.9384 374.577Z" fill="black" stroke="#FF52C6" stroke-width="0.31"/>
<rect x="-0.103002" y="0.0594681" width="1.20082" height="4.97742" rx="0.600408" transform="matrix(-0.866007 -0.500033 3.77386e-05 1 95.8664 316.699)" stroke="#FF52C6" stroke-width="0.237888"/>
<rect x="-0.103002" y="0.0594681" width="1.20082" height="4.97742" rx="0.600408" transform="matrix(-0.866007 -0.500033 3.7724e-05 1 89.3234 312.922)" stroke="#FF52C6" stroke-width="0.237888"/>
<rect width="1.4387" height="5.2153" rx="0.719352" transform="matrix(-0.866007 -0.500033 3.7724e-05 1 96.0586 323.045)" fill="#FF52C6"/>
<rect width="1.4387" height="5.2153" rx="0.719352" transform="matrix(-0.866007 -0.500033 3.7724e-05 1 89.5195 319.268)" fill="#FF52C6"/>
<rect x="-0.103002" y="0.0594681" width="1.20082" height="4.97742" rx="0.600408" transform="matrix(-0.866007 -0.500033 3.7724e-05 1 93.6867 315.44)" stroke="#FF52C6" stroke-width="0.237888"/>
<rect width="1.4387" height="5.2153" rx="0.719352" transform="matrix(-0.866007 -0.500033 3.7724e-05 1 87.3359 311.715)" fill="#FF52C6"/>
<rect width="1.4387" height="5.2153" rx="0.719352" transform="matrix(-0.866007 -0.500033 3.7724e-05 1 93.8789 321.786)" fill="#FF52C6"/>
<rect x="-0.103002" y="0.0594681" width="1.20082" height="4.97742" rx="0.600408" transform="matrix(-0.866007 -0.500033 3.7724e-05 1 87.1476 317.958)" stroke="#FF52C6" stroke-width="0.237888"/>
<rect width="1.4387" height="5.2153" rx="0.719352" transform="matrix(-0.866007 -0.500033 3.7724e-05 1 91.6953 314.232)" fill="#FF52C6"/>
<rect x="-0.103002" y="0.0594681" width="1.20082" height="4.97742" rx="0.600408" transform="matrix(-0.866007 -0.500033 3.7724e-05 1 84.964 310.405)" stroke="#FF52C6" stroke-width="0.237888"/>
<rect x="-0.103002" y="0.0594681" width="1.20082" height="4.97742" rx="0.600408" transform="matrix(-0.866007 -0.500033 3.7724e-05 1 91.507 320.476)" stroke="#FF52C6" stroke-width="0.237888"/>
<rect width="1.4387" height="5.2153" rx="0.719352" transform="matrix(-0.866007 -0.500033 3.7724e-05 1 85.1562 316.75)" fill="#FF52C6"/>
<rect width="19.0346" height="19.0346" rx="1.9031" transform="matrix(-0.866007 -0.500033 3.77386e-05 1 98.0352 360.471)" fill="white"/>
<rect x="-0.0412007" y="0.0237873" width="6.89714" height="2.62407" rx="1.31204" transform="matrix(-0.866007 -0.500033 3.77127e-05 1 95.9387 362.004)" fill="#FF52C6" stroke="black" stroke-width="0.0951552"/>
<rect width="3.88461" height="1.16538" rx="0.582692" transform="matrix(-0.866007 -0.500033 3.77126e-05 1 94.6719 362.025)" fill="black"/>
<rect x="-0.0412007" y="0.0237873" width="6.89714" height="2.62407" rx="1.31204" transform="matrix(-0.866007 -0.500033 3.77127e-05 1 88.8762 363.364)" fill="#FF52C6" stroke="black" stroke-width="0.0951552"/>
<rect width="3.88461" height="1.16538" rx="0.582692" transform="matrix(-0.866007 -0.500033 3.77126e-05 1 87.6094 363.384)" fill="black"/>
<rect x="-0.0412007" y="0.0237873" width="6.89714" height="2.62407" rx="1.31204" transform="matrix(-0.866007 -0.500033 3.77127e-05 1 95.9387 367.442)" fill="#FF52C6" stroke="black" stroke-width="0.0951552"/>
<rect width="3.88461" height="1.16538" rx="0.582692" transform="matrix(-0.866007 -0.500033 3.77126e-05 1 94.6719 367.463)" fill="black"/>
<rect x="-0.0412007" y="0.0237873" width="6.89714" height="2.62407" rx="1.31204" transform="matrix(-0.866007 -0.500033 3.77127e-05 1 95.9387 372.882)" fill="#FF52C6" stroke="black" stroke-width="0.0951552"/>
<rect width="3.88461" height="1.16538" rx="0.582692" transform="matrix(-0.866007 -0.500033 3.77126e-05 1 94.6719 372.902)" fill="black"/>
<rect x="-0.0412007" y="0.0237873" width="6.12022" height="4.17792" rx="0.903975" transform="matrix(-0.866007 -0.500033 3.77127e-05 1 88.5403 357.732)" fill="#D9D9D9" stroke="black" stroke-width="0.0951552"/>
<rect x="-0.0128752" y="0.00743352" width="0.747186" height="1.91257" rx="0.282492" transform="matrix(-0.866007 -0.500033 3.77126e-05 1 87.9213 358.523)" fill="black" stroke="black" stroke-width="0.029736"/>
<rect x="-0.0128752" y="0.00743352" width="0.747186" height="1.91257" rx="0.282492" transform="matrix(-0.866007 -0.500033 3.77126e-05 1 86.2377 357.552)" fill="black" stroke="black" stroke-width="0.029736"/>
<rect x="-0.0128752" y="0.00743352" width="0.747186" height="1.91257" rx="0.282492" transform="matrix(-0.866007 -0.500033 3.77126e-05 1 84.558 356.581)" fill="black" stroke="black" stroke-width="0.029736"/>
<rect x="-0.0412007" y="0.0237873" width="6.12022" height="4.17792" rx="0.903975" transform="matrix(-0.866007 -0.500033 3.77127e-05 1 88.5403 367.83)" fill="#D9D9D9" stroke="black" stroke-width="0.0951552"/>
<rect x="-0.0128752" y="0.00743352" width="0.747186" height="1.91257" rx="0.282492" transform="matrix(-0.866007 -0.500033 3.77126e-05 1 87.9213 368.621)" fill="black" stroke="black" stroke-width="0.029736"/>
<rect x="-0.0128752" y="0.00743352" width="0.747186" height="1.91257" rx="0.282492" transform="matrix(-0.866007 -0.500033 3.77126e-05 1 86.2377 367.651)" fill="black" stroke="black" stroke-width="0.029736"/>
<rect x="-0.0128752" y="0.00743352" width="0.747186" height="1.91257" rx="0.282492" transform="matrix(-0.866007 -0.500033 3.77126e-05 1 84.558 366.679)" fill="black" stroke="black" stroke-width="0.029736"/>
<rect x="-0.0824086" y="0.142736" width="61.575" height="16.1251" rx="2.61312" transform="matrix(-0.866007 0.500033 -3.76532e-05 1 167.233 281.746)" fill="white" stroke="black" stroke-width="0.19031"/>
<rect x="-0.0824086" y="0.142736" width="32.052" height="2.52892" rx="1.26446" transform="matrix(-0.866007 0.500033 -3.76734e-05 1 161.85 292.624)" fill="white" stroke="black" stroke-width="0.19031"/>
<rect x="-0.103002" y="-0.0594681" width="8.69672" height="2.48134" rx="1.24067" transform="matrix(3.76734e-05 -1 -0.866007 0.500033 129.553 316.924)" fill="#FF52C6" stroke="black" stroke-width="0.237888"/>
<rect x="-0.103002" y="-0.0594681" width="8.69672" height="2.48134" rx="1.24067" transform="matrix(3.76734e-05 -1 -0.866007 0.500033 125.517 319.256)" fill="#7CC0FF" stroke="black" stroke-width="0.237888"/>
<rect x="-0.103002" y="-0.0594681" width="8.69672" height="2.48134" rx="1.24067" transform="matrix(3.76734e-05 -1 -0.866007 0.500033 121.478 321.587)" fill="white" stroke="black" stroke-width="0.237888"/>
<rect x="-0.0824086" y="0.142736" width="61.575" height="16.1251" rx="2.61312" transform="matrix(-0.866007 0.500033 -3.76633e-05 1 167.233 304.665)" fill="white" stroke="black" stroke-width="0.19031"/>
<rect x="-0.0824086" y="0.142736" width="32.052" height="2.52892" rx="1.26446" transform="matrix(-0.866007 0.500033 -3.76835e-05 1 161.854 315.543)" fill="white" stroke="black" stroke-width="0.19031"/>
<rect x="-0.103002" y="-0.0594681" width="8.69672" height="2.48134" rx="1.24067" transform="matrix(3.76835e-05 -1 -0.866007 0.500033 129.556 339.843)" fill="#FF52C6" stroke="black" stroke-width="0.237888"/>
<rect x="-0.103002" y="-0.0594681" width="8.69672" height="2.48134" rx="1.24067" transform="matrix(3.76835e-05 -1 -0.866007 0.500033 125.521 342.175)" fill="white" stroke="black" stroke-width="0.237888"/>
<rect x="-0.103002" y="-0.0594681" width="8.69672" height="2.48134" rx="1.24067" transform="matrix(3.76835e-05 -1 -0.866007 0.500033 121.482 344.505)" fill="white" stroke="black" stroke-width="0.237888"/>
<rect x="-0.0824086" y="0.142736" width="61.575" height="16.1251" rx="2.61312" transform="matrix(-0.866007 0.500033 -3.76633e-05 1 167.233 327.584)" fill="white" stroke="black" stroke-width="0.19031"/>
<rect x="-0.0824086" y="0.142736" width="32.052" height="2.52892" rx="1.26446" transform="matrix(-0.866007 0.500033 -3.76835e-05 1 161.854 338.462)" fill="white" stroke="black" stroke-width="0.19031"/>
<rect x="-0.103002" y="-0.0594681" width="8.69672" height="2.48134" rx="1.24067" transform="matrix(3.76835e-05 -1 -0.866007 0.500033 129.556 362.762)" fill="#7A65FD" stroke="black" stroke-width="0.237888"/>
<rect x="-0.103002" y="-0.0594681" width="8.69672" height="2.48134" rx="1.24067" transform="matrix(3.76835e-05 -1 -0.866007 0.500033 125.521 365.094)" fill="#7A65FD" stroke="black" stroke-width="0.237888"/>
<rect x="-0.103002" y="-0.0594681" width="8.69672" height="2.48134" rx="1.24067" transform="matrix(3.76835e-05 -1 -0.866007 0.500033 121.482 367.425)" fill="white" stroke="black" stroke-width="0.237888"/>
<rect y="0.095149" width="20.7866" height="20.7866" rx="2.7595" transform="matrix(-0.866044 0.499967 0.866044 0.499967 138.933 252.039)" fill="#D9D9D9" stroke="black" stroke-width="0.19031"/>
<circle cx="0.582692" cy="0.582692" r="0.487536" transform="matrix(-0.866044 0.499967 0.866044 0.499967 139.016 253.545)" fill="#D9D9D9" stroke="black" stroke-width="0.19031"/>
<circle cx="0.582692" cy="0.582692" r="0.487536" transform="matrix(-0.866044 0.499967 0.866044 0.499967 124.211 262.091)" fill="#D9D9D9" stroke="black" stroke-width="0.19031"/>
<circle cx="0.582692" cy="0.582692" r="0.487536" transform="matrix(-0.866044 0.499967 0.866044 0.499967 138.68 270.442)" fill="#D9D9D9" stroke="black" stroke-width="0.19031"/>
<circle cx="0.582692" cy="0.582692" r="0.487536" transform="matrix(-0.866044 0.499967 0.866044 0.499967 153.48 261.897)" fill="#D9D9D9" stroke="black" stroke-width="0.19031"/>
<circle cx="7.38076" cy="7.38076" r="7.38076" transform="matrix(-0.866044 0.499967 0.866044 0.499967 139.016 255.099)" fill="black"/>
<circle cx="1.48596" cy="1.48596" r="1.48596" transform="matrix(-0.866044 0.499967 0.866044 0.499967 138.719 261.008)" fill="#FF52C6"/>
<path d="M143.688 259.744C144.789 260.434 145.747 261.438 144.988 262.025C144.551 262.363 144.046 262.386 143.328 262.523C142.609 262.659 141.307 262.723 141.307 262.723C141.307 262.723 141.475 262.226 141.011 261.735C140.523 261.219 139.403 261.029 139.403 261.029C139.403 261.029 138.059 258.931 139.068 258.607C139.615 258.432 142.084 258.739 143.688 259.744Z" fill="#FF52C6"/>
<path d="M132.114 261.386C132.599 260.491 133.626 259.51 134.886 259.596C135.611 259.645 135.899 259.886 136.463 260.177C137.027 260.468 137.774 261.087 137.774 261.087C137.774 261.087 136.943 261.252 136.439 261.729C135.909 262.231 136.185 262.886 136.185 262.886C136.185 262.886 133.709 264.606 132.719 264.264C132.183 264.078 131.408 262.691 132.114 261.386Z" fill="#FF52C6"/>
<path d="M140.432 266.383C138.847 266.588 136.861 266.565 136.361 265.892C136.072 265.505 136.289 265.241 136.444 264.813C136.599 264.386 137.153 263.703 137.153 263.703C137.153 263.703 137.816 264.035 138.784 264.049C139.803 264.063 140.647 263.598 140.647 263.598C140.647 263.598 144.466 263.975 144.447 264.641C144.437 265.002 142.742 266.083 140.432 266.383Z" fill="#FF52C6"/>
<rect y="0.095149" width="20.7866" height="20.7866" rx="2.7595" transform="matrix(-0.866044 0.499967 0.866044 0.499967 108.007 269.643)" fill="#D9D9D9" stroke="black" stroke-width="0.19031"/>
<circle cx="0.582692" cy="0.582692" r="0.487536" transform="matrix(-0.866044 0.499967 0.866044 0.499967 108.09 271.149)" fill="#D9D9D9" stroke="black" stroke-width="0.19031"/>
<circle cx="0.582692" cy="0.582692" r="0.487536" transform="matrix(-0.866044 0.499967 0.866044 0.499967 93.2852 279.694)" fill="#D9D9D9" stroke="black" stroke-width="0.19031"/>
<circle cx="0.582692" cy="0.582692" r="0.487536" transform="matrix(-0.866044 0.499967 0.866044 0.499967 107.754 288.046)" fill="#D9D9D9" stroke="black" stroke-width="0.19031"/>
<circle cx="0.582692" cy="0.582692" r="0.487536" transform="matrix(-0.866044 0.499967 0.866044 0.499967 122.555 279.5)" fill="#D9D9D9" stroke="black" stroke-width="0.19031"/>
<circle cx="7.38076" cy="7.38076" r="7.38076" transform="matrix(-0.866044 0.499967 0.866044 0.499967 108.09 272.703)" fill="black"/>
<circle cx="1.48596" cy="1.48596" r="1.48596" transform="matrix(-0.866044 0.499967 0.866044 0.499967 107.793 278.612)" fill="#FF52C6"/>
<path d="M112.762 277.348C113.863 278.038 114.821 279.042 114.062 279.629C113.625 279.967 113.121 279.99 112.402 280.126C111.683 280.263 110.382 280.327 110.382 280.327C110.382 280.327 110.549 279.829 110.086 279.339C109.597 278.822 108.477 278.633 108.477 278.633C108.477 278.633 107.133 276.535 108.142 276.211C108.689 276.036 111.158 276.342 112.762 277.348Z" fill="#FF52C6"/>
<path d="M101.188 278.99C101.673 278.095 102.7 277.113 103.96 277.199C104.686 277.249 104.973 277.489 105.537 277.78C106.101 278.072 106.848 278.69 106.848 278.69C106.848 278.69 106.018 278.856 105.514 279.332C104.983 279.835 105.259 280.489 105.259 280.489C105.259 280.489 102.784 282.21 101.793 281.868C101.257 281.682 100.482 280.294 101.188 278.99Z" fill="#FF52C6"/>
<path d="M109.506 283.986C107.921 284.192 105.936 284.169 105.435 283.496C105.146 283.108 105.363 282.845 105.518 282.417C105.673 281.99 106.228 281.307 106.228 281.307C106.228 281.307 106.891 281.639 107.858 281.653C108.877 281.667 109.721 281.201 109.721 281.201C109.721 281.201 113.54 281.579 113.521 282.245C113.511 282.606 111.817 283.687 109.506 283.986Z" fill="#FF52C6"/>
<mask id="path-137-inside-1_1049_1091" fill="white">
<path fill-rule="evenodd" clip-rule="evenodd" d="M143.89 185.003L141.769 191.476L141.768 219.602C141.768 222.364 139.829 225.721 137.438 227.102L109.801 243.06C108.757 243.663 107.748 244.681 106.96 245.927L105.277 248.589L106.413 249.507L102.877 258.489L100.049 256.856L100.05 256.854L101.05 250.505C101.2 249.551 100.843 248.931 100.24 248.862L97.9288 252.364L94.7471 250.528L94.88 250.122C94.1407 249.652 93.6868 248.7 93.6869 247.364L93.6881 214.091C93.6882 211.329 95.627 207.971 98.0184 206.591L137.439 183.829C138.451 183.245 139.381 183.108 140.118 183.354L140.355 182.962L143.89 185.003Z"/>
</mask>
<path fill-rule="evenodd" clip-rule="evenodd" d="M143.89 185.003L141.769 191.476L141.768 219.602C141.768 222.364 139.829 225.721 137.438 227.102L109.801 243.06C108.757 243.663 107.748 244.681 106.96 245.927L105.277 248.589L106.413 249.507L102.877 258.489L100.049 256.856L100.05 256.854L101.05 250.505C101.2 249.551 100.843 248.931 100.24 248.862L97.9288 252.364L94.7471 250.528L94.88 250.122C94.1407 249.652 93.6868 248.7 93.6869 247.364L93.6881 214.091C93.6882 211.329 95.627 207.971 98.0184 206.591L137.439 183.829C138.451 183.245 139.381 183.108 140.118 183.354L140.355 182.962L143.89 185.003Z" fill="#D9D9D9"/>
<path d="M141.769 191.476L141.423 191.676L141.423 191.587L141.455 191.488L141.769 191.476ZM143.89 185.003L144.135 184.579L144.307 184.678L144.204 184.991L143.89 185.003ZM141.768 219.602L141.422 219.802L141.422 219.802L141.768 219.602ZM106.96 245.927L106.732 245.757L106.732 245.757L106.96 245.927ZM105.277 248.589L105.011 248.999L104.793 248.823L105.049 248.418L105.277 248.589ZM106.413 249.507L106.679 249.098L106.835 249.224L106.712 249.538L106.413 249.507ZM102.877 258.489L103.176 258.519L102.949 259.096L102.632 258.913L102.877 258.489ZM100.049 256.856L99.8042 257.28L99.5762 257.149L99.7873 256.745L100.049 256.856ZM100.05 256.854L100.39 256.736L100.372 256.85L100.312 256.965L100.05 256.854ZM101.05 250.505L101.39 250.387L101.39 250.387L101.05 250.505ZM100.24 248.862L100.021 248.678L100.21 248.393L100.418 248.416L100.24 248.862ZM97.9288 252.364L98.1473 252.549L97.9048 252.916L97.6839 252.789L97.9288 252.364ZM94.7471 250.528L94.5022 250.952L94.3306 250.853L94.4332 250.54L94.7471 250.528ZM94.88 250.122L95.1309 249.701L95.2939 249.805L95.1939 250.11L94.88 250.122ZM93.6869 247.364L94.0333 247.164L93.6869 247.364ZM93.6881 214.091L93.3417 214.291L93.6881 214.091ZM140.118 183.354L140.355 183.51L140.137 183.869L139.904 183.792L140.118 183.354ZM140.355 182.962L140.119 182.806L140.364 182.401L140.6 182.538L140.355 182.962ZM141.455 191.488L143.577 185.015L144.204 184.991L142.083 191.464L141.455 191.488ZM141.422 219.802L141.423 191.676L142.116 191.276L142.114 219.402L141.422 219.802ZM137.438 226.702C139.638 225.432 141.422 222.343 141.422 219.802L142.114 219.402C142.114 222.384 140.021 226.011 137.438 227.502L137.438 226.702ZM109.801 242.66L137.438 226.702L137.438 227.502L109.801 243.46L109.801 242.66ZM106.732 245.757C107.584 244.411 108.673 243.311 109.801 242.66L109.801 243.46C108.84 244.014 107.912 244.951 107.187 246.098L106.732 245.757ZM105.049 248.418L106.732 245.757L107.187 246.098L105.504 248.76L105.049 248.418ZM106.147 249.917L105.011 248.999L105.543 248.179L106.679 249.098L106.147 249.917ZM102.579 258.458L106.114 249.477L106.712 249.538L103.176 258.519L102.579 258.458ZM100.294 256.432L103.122 258.065L102.632 258.913L99.8042 257.28L100.294 256.432ZM100.312 256.965L100.311 256.967L99.7873 256.745L99.7883 256.743L100.312 256.965ZM101.39 250.387L100.39 256.736L99.7105 256.972L100.71 250.622L101.39 250.387ZM100.418 248.416C101.14 248.499 101.57 249.241 101.39 250.387L100.71 250.622C100.83 249.861 100.546 249.363 100.062 249.308L100.418 248.416ZM97.7104 252.18L100.021 248.678L100.458 249.047L98.1473 252.549L97.7104 252.18ZM94.9921 250.103L98.1738 251.94L97.6839 252.789L94.5022 250.952L94.9921 250.103ZM95.1939 250.11L95.061 250.515L94.4332 250.54L94.5661 250.134L95.1939 250.11ZM94.0333 247.164C94.0332 248.394 94.4504 249.269 95.1309 249.701L94.6291 250.543C93.8309 250.035 93.3404 249.007 93.3405 247.564L94.0333 247.164ZM94.0345 213.891L94.0333 247.164L93.3405 247.564L93.3417 214.291L94.0345 213.891ZM98.0184 206.991C95.8183 208.261 94.0346 211.35 94.0345 213.891L93.3417 214.291C93.3419 211.309 95.4357 207.682 98.0184 206.191L98.0184 206.991ZM137.439 184.229L98.0184 206.991L98.0184 206.191L137.439 183.429L137.439 184.229ZM139.904 183.792C139.226 183.566 138.37 183.691 137.439 184.229L137.439 183.429C138.532 182.798 139.537 182.651 140.333 182.916L139.904 183.792ZM140.592 183.118L140.355 183.51L139.882 183.198L140.119 182.806L140.592 183.118ZM143.645 185.427L140.11 183.386L140.6 182.538L144.135 184.579L143.645 185.427Z" fill="black" mask="url(#path-137-inside-1_1049_1091)"/>
<path d="M140.268 185.712L100.847 208.473C98.5747 209.785 96.7329 212.975 96.7328 215.599L96.7315 248.872C96.7314 251.495 98.5731 252.558 100.845 251.247L102.18 250.476C103.41 249.766 104.332 250.532 104.091 252.064L103.215 257.623L109.646 247.453C110.473 246.145 111.533 245.076 112.629 244.442L140.266 228.485C142.538 227.173 144.38 223.983 144.38 221.36L144.381 188.086C144.381 185.463 142.539 184.4 140.268 185.712Z" fill="#FF52C6" stroke="black" stroke-width="0.5"/>
<path d="M122.776 215.516L119.182 217.127L119.543 213.209L123.166 211.588C123.344 211.001 123.568 210.42 123.826 209.853L121.61 207.928L124.137 204.14L126.376 206.092C126.801 205.648 127.248 205.25 127.713 204.901L128.104 200.648L131.313 199.213L130.911 203.559C131.336 203.533 131.738 203.573 132.1 203.683L134.85 199.56L136.865 201.316L134.029 205.568C134.184 205.956 134.293 206.404 134.356 206.886L137.91 205.291L137.548 209.21L133.874 210.853C133.69 211.417 133.466 211.971 133.207 212.519L135.481 214.491L132.955 218.278L130.612 216.24C130.222 216.631 129.814 216.993 129.395 217.301L128.982 221.767L125.772 223.202L126.192 218.647C125.801 218.673 125.439 218.643 125.106 218.55L122.236 222.855L120.221 221.099L123.126 216.741C122.965 216.389 122.85 215.971 122.776 215.516ZM125.348 215.909C126.031 216.503 127.007 216.563 128.098 216.073C129.189 215.582 130.256 214.607 131.118 213.321C131.973 212.037 132.513 210.597 132.633 209.267C132.754 207.936 132.444 206.881 131.761 206.28C131.078 205.686 130.102 205.626 129.011 206.116C127.92 206.607 126.852 207.582 125.991 208.869C125.135 210.152 124.596 211.592 124.475 212.922C124.355 214.253 124.664 215.315 125.348 215.909Z" fill="black"/>
<path d="M108.323 228.473L105.596 228.814L106.553 225.448L109.301 225.106C109.528 224.639 109.786 224.192 110.064 223.767L108.912 221.388L111.311 218.792L112.474 221.201C112.842 220.935 113.218 220.718 113.596 220.55L114.633 216.894L117.068 216.592L116.006 220.327C116.299 220.432 116.564 220.589 116.789 220.796L119.401 217.97L120.447 220.138L117.754 223.052C117.788 223.444 117.781 223.874 117.736 224.32L120.434 223.981L119.477 227.348L116.689 227.694C116.462 228.139 116.21 228.563 115.936 228.97L117.118 231.408L114.719 234.004L113.502 231.486C113.166 231.715 112.824 231.913 112.484 232.06L111.393 235.896L108.958 236.198L110.07 232.284C109.8 232.189 109.561 232.053 109.352 231.87L106.625 234.82L105.579 232.653L108.338 229.665C108.293 229.304 108.292 228.899 108.323 228.473ZM109.995 229.6C110.35 230.334 111 230.682 111.828 230.577C112.656 230.472 113.557 229.93 114.374 229.049C115.187 228.169 115.814 227.055 116.137 225.912C116.46 224.768 116.442 223.738 116.088 222.998C115.733 222.264 115.083 221.915 114.255 222.02C113.426 222.125 112.526 222.667 111.709 223.548C110.896 224.428 110.269 225.542 109.946 226.686C109.623 227.83 109.64 228.866 109.995 229.6Z" fill="black"/>
</svg>
